<?xml version="1.0" encoding="UTF-8"?>
<svg id="Capa_2" data-name="Capa 2" xmlns="http://www.w3.org/2000/svg" viewBox="0 0 984 621">
  <g id="Capa_2-2" data-name="Capa 2">
    <g id="Capa_1-2" data-name="Capa 1-2">
      <g>
        <g>
          <g>
            <path
              d="M330.5,151.5c-1.24-3.66-11.38-4.34-19-3-13.16,2.31-20.34,10.92-47,28-2.99,1.92-6.54,4.12-10,3-6.09-1.97-7.66-12.86-9-23-1.86-14.02-2.79-21.03,0-30,6.36-20.47,24.48-29.29,28-31,3.01-1.46,17.83-8.67,22-4,5.72,6.41-11.02,32.37-14,37-7.26,11.26-12.98,16.68-11,20,2.12,3.56,11.48,1.84,18,0,19.13-5.4,26.17-27.24,29-36,3.19-9.9,6.82-21.14,1-29-5.08-6.86-14.57-7.38-26-8-7.29-.4-22.19-1.03-39,7-3.76,1.79-20.17,10.02-32,29-2.96,4.75-13.82,22.71-12,46,2.11,27.06,19.27,34.95,14,49-3.73,9.96-12.52,6.47-39,25-12.72,8.9-19.48,16.27-33,31-6.67,7.26-11.2,12.92-12,21-.79,7.96,2.44,14.21,5,19,7.28,13.63,21.46,25.41,39,29,11.88,2.43,21.41,.31,27-1,29.44-6.89,46.56-29.82,52-38,14.84-22.32,15.56-44.47,16-58,.33-10.03,.58-17.76-3-27-2.94-7.59-5.64-8.92-5-13,.72-4.57,4.65-6.33,29-20,5.73-3.22,10.9-7.56,17-10,3.11-1.25,8.28-3.02,12-8,1.12-1.5,2.54-3.39,2-5Zm-105,89c-.3,4.03-1.25,10.98-6,22-3.74,8.68-7.03,16.32-14,24-7.18,7.91-22.46,20.47-30,16-6.08-3.6-4.42-16.65-4-20,.85-6.69,3.52-15.02,15-29,8.4-10.23,29.71-33.46,37-29,3.06,1.87,2.6,7.99,2,16Z"
              fill="#198754" />
            <path
              d="M194.53,335.12c-3.52,0-7.38-.32-11.54-1.17-17.25-3.53-32.46-14.84-40.7-30.27-2.46-4.6-6.17-11.54-5.28-20.43,.9-9,6.03-15.23,12.65-22.44,13.63-14.85,20.47-22.3,33.41-31.36,12.71-8.9,21.58-12.87,27.44-15.5,6.4-2.87,9.05-4.06,10.65-8.33,2.24-5.99-.3-10.62-4.14-17.65-3.97-7.25-8.92-16.28-10.01-30.28-1.24-15.86,3.16-32.73,12.37-47.52,11.33-18.18,26.88-26.99,33.04-29.93,17.73-8.47,33.49-7.61,40.21-7.24,11.86,.65,22.09,1.21,27.87,9.01,6.59,8.89,2.75,20.77-.63,31.26-2.81,8.72-10.28,31.87-30.7,37.64-11.45,3.23-18.46,2.85-20.83-1.13-2.22-3.73,.57-7.64,5.19-14.12,1.74-2.44,3.72-5.21,5.85-8.52,14.75-22.89,15.89-32.13,14.24-33.98-1.08-1.21-6.31-1.61-19.04,4.58-7.72,3.76-21.45,12.58-26.71,29.49-2.62,8.45-1.72,15.29,.09,28.92,1.09,8.2,2.58,19.43,7.29,20.96,2.23,.72,4.89-.81,7.88-2.73,8.89-5.7,15.67-10.49,21.11-14.34,10.91-7.72,17.5-12.38,26.8-14.01,7.38-1.3,19.82-1.18,21.8,4.66h0c.96,2.84-1.03,5.5-2.34,7.27-3.9,5.23-9.24,7.34-12.43,8.59l-.67,.26c-3.59,1.44-6.85,3.58-10.3,5.86-2.06,1.36-4.19,2.76-6.4,4-2.31,1.3-4.44,2.49-6.4,3.58-17.58,9.84-20.91,11.78-21.36,14.62-.24,1.52,.14,2.28,1.49,4.7,.9,1.6,2.13,3.8,3.37,7.01,3.76,9.72,3.5,17.78,3.17,27.98-.44,13.61-1.19,36.39-16.42,59.3-6.28,9.45-24.06,32.16-53.51,39.05-3.62,.85-9.33,2.18-16.53,2.18l.02,.03ZM286.08,77.79c-7.63,0-19.08,1.03-31.5,6.96-5.76,2.75-20.32,11-30.96,28.07-8.65,13.89-12.78,29.68-11.63,44.48,1.01,12.93,5.67,21.44,9.41,28.27,4.02,7.34,7.49,13.67,4.44,21.8-2.33,6.23-6.46,8.07-13.29,11.14-6.03,2.7-14.29,6.41-26.62,15.03-12.49,8.74-19.21,16.06-32.59,30.64-6.18,6.73-10.61,12.08-11.36,19.56-.73,7.37,2.42,13.27,4.72,17.57,7.44,13.92,21.73,24.54,37.3,27.73,11.58,2.37,20.92,.19,25.93-.99,27.71-6.48,44.54-28,50.49-36.95,14.44-21.73,15.16-43.62,15.58-56.7,.33-10.01,.56-17.25-2.83-26.02-1.11-2.88-2.2-4.82-3.07-6.37-1.45-2.58-2.59-4.62-2.07-7.92,.84-5.33,4.35-7.3,23.85-18.21,1.96-1.09,4.08-2.28,6.39-3.58,2.06-1.16,4.11-2.51,6.1-3.82,3.51-2.31,7.13-4.7,11.2-6.32l.69-.28c3.04-1.2,7.2-2.83,10.23-6.9,.5-.67,1.6-2.15,1.62-2.73-.72-1.32-7.95-2.76-16.19-1.32-8.19,1.44-14.08,5.61-24.78,13.17-5.49,3.88-12.32,8.71-21.3,14.47-3.15,2.02-7.46,4.78-12.12,3.27-7.72-2.5-9.31-14.48-10.71-25.05-1.9-14.36-2.86-21.57,.09-31.07,4.31-13.86,14.71-25.41,29.29-32.51,13.14-6.4,21.3-7.51,24.96-3.42,1.73,1.94,6.99,7.82-13.76,40.02-2.2,3.41-4.21,6.23-5.99,8.72-2.46,3.44-5.52,7.72-4.97,8.65,.53,.88,4.92,1.77,15.17-1.13,17.84-5.04,24.47-25.59,27.3-34.36,3.01-9.34,6.43-19.92,1.37-26.75-4.38-5.91-13.09-6.39-24.13-6.99-1.59-.09-3.73-.2-6.29-.2l.03,.04Zm-106.92,228.13c-1.78,0-3.44-.39-4.93-1.27-4.97-2.95-6.72-10.51-5.2-22.46,.84-6.63,3.35-15.41,15.55-30.27,4.66-5.67,12.14-13.98,19.18-20.28,10.02-8.98,16.71-11.92,21.06-9.26,4.36,2.67,3.87,9.23,3.19,18.32-.33,4.38-1.33,11.5-6.2,22.8-3.7,8.59-7.2,16.71-14.44,24.69-6.2,6.83-18.79,17.74-28.2,17.74h-.01Zm41.97-79.56c-5.05,0-19.26,12.36-32.7,28.72-11.4,13.88-13.7,21.8-14.45,27.73-1.69,13.33,1.39,16.7,2.8,17.54,5.42,3.22,19.09-6.95,26.87-15.53,6.69-7.37,9.87-14.76,13.56-23.31,4.57-10.61,5.5-17.18,5.8-21.2h0c.44-5.91,.95-12.61-.81-13.68-.29-.18-.65-.26-1.07-.26h0Z"
              fill="#fff" />
          </g>
          <g>
            <path
              d="M380.5,185.5c-6.4-7.2-17.22-10.55-17-11,.2-.42,8.46,4.46,11,2,1.55-1.49,.89-5.6-1-8-5.28-6.71-23.08-3.76-35,3-15.16,8.6-21.05,23.5-26,36-5.53,13.98-11.6,29.31-5,45,1.1,2.61,6.75,16.06,20,20,12.71,3.78,24.21-3.63,31-8,23.33-15.03,27.5-41.47,28-45,1.05-7.4,3.32-23.52-6-34Zm-21,16c-2.66,7.87-6.46,13.38-9,17-13.92,19.87-15.34,20.3-16,20-1.23-.55-.74-4,0-9,1.78-11.94,5.35-20.93,8-27,5.6-12.82,8.48-19.23,12-19,2.97,.19,5.25,5.03,6,8,.83,3.29,.26,6.26-1,10Z"
              fill="#198754" />
            <path
              d="M334.75,276.06c-2.57,0-5.23-.35-7.96-1.16-9.27-2.76-16.94-10.37-21.59-21.43-6.99-16.63-.63-32.71,4.98-46.89,4.98-12.58,11.17-28.22,27.09-37.26,11.32-6.42,31.44-10.96,38.2-2.37,2.55,3.24,3.42,8.78,.77,11.34-.05,.05-.1,.09-.15,.14,2.2,1.5,4.4,3.29,6.28,5.4,10.09,11.35,7.65,28.63,6.61,36.01-.73,5.14-5.54,31.57-29.12,46.75-5.78,3.72-14.68,9.46-25.1,9.46h-.01Zm27.82-108.8c-6.66,0-15.54,2.29-22.84,6.43-14.39,8.16-19.98,22.28-24.91,34.74-5.52,13.95-11.22,28.36-5.02,43.11,2.35,5.59,7.87,15.44,18.41,18.57,11.61,3.45,22.45-3.53,28.93-7.71,21.75-14.01,26.21-38.48,26.88-43.25,1.03-7.26,3.16-22.37-5.39-31.99h0c-4.37-4.91-11.09-7.95-14.33-9.41-2-.9-2.74-1.24-3.15-2.37l-.36-.99,.46-.98c1.09-2.27,3.4-1.28,4.92-.63,4.39,1.88,6.02,2.07,6.61,1.88,.26-.56,.05-2.97-1.25-4.62-1.5-1.9-4.8-2.8-8.97-2.8v.02Zm-27.83,73.82c-.4,0-.82-.09-1.25-.28-2.99-1.34-2.41-5.22-1.45-11.65,1.79-11.99,5.31-21.07,8.18-27.63,6.25-14.31,9.11-20.85,14.45-20.49,4.64,.3,7.38,6.35,8.26,9.88,.99,3.94,.29,7.41-1.06,11.41-2.83,8.36-6.89,14.17-9.32,17.63-6.26,8.93-10.55,14.74-13.12,17.75-1.37,1.6-2.88,3.38-4.7,3.38h.01Zm19.57-55.07c-1.86,0-5.92,9.3-9.51,17.51-2.75,6.28-6.12,14.96-7.82,26.37-.17,1.11-.36,2.39-.5,3.57,2.1-2.59,5.72-7.43,11.98-16.37,2.27-3.25,6.08-8.68,8.68-16.37h0c1.1-3.25,1.64-5.82,.94-8.59-.79-3.16-2.75-6.05-3.74-6.12h-.03Z"
              fill="#fff" />
          </g>
          <g>
            <path
              d="M721.5,189.5c-7.23-9.29-20.4-10.36-20-12,.36-1.46,10.4,.84,11-1,.58-1.8-7.62-8.05-17-8-6.42,.03-11.23,3.11-14,5-13.65,9.33-21.08,20.14-30,31-11.26,13.72-20.79,22.49-29,30-5.23,4.78-12.82,9.85-28,20-4.61,3.08-7.09,4.64-10,4-10.32-2.27-15.37-29.97-8-35,2.42-1.65,4.61,.2,12-1,5.63-.92,9.63-2.85,12-4,10.52-5.09,16.44-13.42,21-20,6.78-9.79,10.95-15.8,10-24-.95-8.15-6.36-13.45-8-15-10.76-10.22-26.07-7.52-29-7-10.76,1.9-17.71,8.02-21,11-3.7,3.34-5.5,6.02-14,20-7.99,13.13-11.98,19.7-15,25-9.84,17.26-9.41,17.71-16,29-6.89,11.81-18.88,32.36-22,31-1.57-.69-.28-6.67,2-17,6.08-27.52,8.38-41.44,11-49,3.95-11.39,6.62-15.69,9-27,.98-4.67,2.02-9.33,3-14,2.78-13.22,3.01-15.03,5-17,3.63-3.59,6.96-1.67,19-4,7.95-1.54,7.14-2.5,20-6,6.53-1.78,13.14-3.57,22-5,10.46-1.69,16.15-1.58,23-6,4.76-3.07,6.15-3.95,6-5-.22-1.57-3.27-2.45-6-3-11.71-2.36-24.24,0-35,2-23.87,4.44-23.48,4.23-26,5-9.71,2.97-15.3,6.02-17,4-1.49-1.78,1.54-5.68,7-20,2.79-7.31,3.62-10.53,2-13-1.41-2.16-4.15-2.93-8-4-3.49-.97-6.27-1.75-9-1-4.1,1.12-5.32,4.91-10,13-6.34,10.97-7.17,9.33-11,17-5.78,11.57-2.99,13.52-7,18-4.99,5.57-8.94,2.16-29,8,0,0-6.59,1.92-26,12-1.26,.66-3.32,1.75-5,4-1.74,2.33-1.59,3.93-3,7-1.22,2.67-2.07,3.07-5,7-5.14,6.89-5.97,10.27-7,10-1.46-.38-.17-7.27-1-19-.75-10.64-2.33-12.37-3-13-4.19-3.97-13.52-3.44-19,1-6.63,5.38-4.76,14.16-7,31-1.32,9.89-3.54,17.26-8,32-8.74,28.93-13.31,44.04-19,53-1,1.57-3.19,4.78-3,9,0,0,.1,2.3,4,11,4.11,2.5,7.03,5.04,9,7,3.06,3.04,4.76,5.57,8,6,1.75,.23,3.13-.26,5-1,6.24-2.47,10.35-4.11,13-6,6.55-4.69,5.92-12.29,11-30,2.58-8.98,5.11-15.3,9-25,1.39-3.48,6.06-15.04,12-27,4.2-8.44,4.84-8.65,7-14,1.84-4.55,2.87-8.11,4-8,1.91,.18,.03,10.48,6,15,.62,.47,2.75,1.31,7,3,3.63,1.44,8.07,3.02,8,3-.1,1.43,8.18,3.82,6,6-3,3-11,33-11,43,0,11.86,.64,19.88,4,25,.29,.44,.19,.24,8,8,7.14,7.1,7.91,7.94,10,9,1.75,.89,6.82,3.14,13,2,5.19-.96,8.51-3.81,11-6,4.3-3.78,4.94-6.3,12-18,6.53-10.83,6.34-9.26,8-13,2.74-6.16,2.98-9.77,7-18,3.74-7.67,5.27-8.11,6-8,1.38,.22,1.71,2.69,3,6,1.85,4.72,4.27,7.58,8,12,4.7,5.56,9.2,8.67,14,12,6.15,4.26,9.32,6.4,14,7,4.23,.55,7.57-.34,10-1,4.13-1.13,5.6-2.43,16-9,8.63-5.45,9.51-5.75,12-8,2.43-2.2,2.58-2.81,8-9,9.55-10.92,11.09-11.33,12-11,1.94,.7,.49,4.53,3,11,.47,1.22,1.17,2.76,8,12,4.19,5.67,6.29,8.51,7,9,7.13,4.91,17.78,.94,23-1,10.59-3.94,17.03-10.73,21-15,1.41-1.52,7.18-7.87,12-18,2.54-5.34,6.59-14.08,7-26,.27-7.83,.57-16.84-5-24Zm-139,14c4.52-13,3.53-13.88,6-19,3.67-7.59,10.43-15.13,13-14,2.07,.91,1.46,7.45,0,12-1.32,4.09-3.25,6.34-7,11-10,12.44-13.16,17.51-14,17-.5-.3,.35-2.27,2-7Zm-88-35c-2.61,8.19-3,8.25-6,17-3.81,11.13-4.23,14.12-7,15-2.73,.87-6.16-.82-8-3-3.07-3.64-.33-7-2-16-1.22-6.59-3.33-8.24-2-11,1.25-2.6,3.95-2.85,10-5,11.93-4.25,16.42-8.61,18-7,.94,.96-.69,2.75-3,10Zm195,51c-7.82,12.01-12.96,19.91-15,19-2.53-1.14,1.25-15.26,4-23,1.37-3.87,3.58-8.25,8-17,5.37-10.65,6.74-12.15,8-12,2.42,.3,4.06,6.71,4,12-.06,5.37-1.88,10.06-9,21Z"
              fill="#198754" />
            <path
              d="M501.02,308.32c-4.72,0-8.55-1.52-10.65-2.59-2.28-1.16-3.2-2.07-9.14-7.98l-1.49-1.48c-3.03-3.01-4.86-4.82-6-5.93-1.97-1.94-2.01-1.98-2.33-2.47-3.69-5.62-4.41-13.92-4.41-26.37,0-8.69,6.78-36.63,10.88-43.59-.59-.4-1.4-.85-1.92-1.14-1.25-.7-2.41-1.35-3.14-2.17-1.41-.47-3.61-1.34-7.23-2.77-5.01-1.98-6.69-2.65-7.59-3.33-3.47-2.63-4.75-6.71-5.37-10.1-.25,.65-.52,1.33-.8,2.04-1.31,3.25-2.12,4.74-3.35,7.01-.89,1.64-1.99,3.68-3.73,7.17-2.75,5.53-7.04,14.67-11.92,26.82-3.84,9.57-6.38,15.9-8.92,24.76-1.51,5.28-2.49,9.56-3.36,13.34-2.02,8.84-3.25,14.18-8.59,18-2.9,2.07-7.13,3.75-13.53,6.29-1.76,.7-3.75,1.49-6.25,1.15-3.47-.46-5.56-2.67-7.78-5-.51-.54-1.05-1.11-1.65-1.7-2.5-2.48-5.37-4.71-8.54-6.64l-.66-.4-.32-.71c-3.8-8.48-4.19-11.26-4.22-11.91-.21-4.81,2.12-8.47,3.24-10.23l.14-.22c5.5-8.67,10.2-24.19,18.72-52.38,4.41-14.6,6.63-21.92,7.92-31.61,.63-4.76,.93-8.86,1.2-12.48,.69-9.41,1.14-15.62,6.71-20.13,6.54-5.31,17.17-5.72,22.29-.87,1.53,1.44,3.04,4.22,3.78,14.64,.36,5.04,.33,9.19,.29,12.32,.84-1.32,1.89-2.86,3.21-4.64,1.06-1.42,1.85-2.39,2.49-3.17,1.12-1.37,1.58-1.94,2.24-3.38,.5-1.08,.77-1.96,1.04-2.81,.45-1.42,.92-2.9,2.23-4.64,2.05-2.75,4.62-4.08,5.85-4.72,19.41-10.08,26.17-12.1,26.45-12.18,9.12-2.66,14.89-3.43,19.1-3.99,4.92-.66,6.58-.88,8.73-3.28,1.52-1.69,1.74-2.74,2.22-5.03,.55-2.63,1.31-6.22,4.41-12.42,2.02-4.04,3.3-5.71,4.8-7.65,1.49-1.93,3.18-4.12,6.27-9.48,.92-1.6,1.71-3.02,2.41-4.29,2.99-5.42,4.79-8.69,9.09-9.87,3.4-.93,6.61-.03,10.33,1,4.19,1.17,7.5,2.09,9.42,5.04,2.31,3.54,1.18,7.56-1.76,15.26-2.04,5.34-3.75,9.26-5,12.12-.89,2.05-1.75,4.01-2.08,5.11,1.38-.2,4.04-1.14,6.44-1.99,2.19-.77,4.67-1.65,7.56-2.53,1.88-.58,2.2-.63,10.38-2.13,3.54-.65,8.58-1.57,15.9-2.93l.19-.04c11.08-2.06,23.64-4.4,35.76-1.96,3.7,.74,7.53,1.93,7.98,5.1,.37,2.62-1.33,3.72-6.98,7.36l-.14,.09c-5.91,3.81-11.03,4.52-18.12,5.51-1.78,.25-3.71,.52-5.83,.86-8.73,1.41-15.35,3.21-21.74,4.94-6.11,1.66-9.04,2.73-11.4,3.58-2.6,.94-4.48,1.63-8.78,2.46-4.91,.95-8.46,1.22-11.05,1.41-3.98,.3-5.19,.45-6.66,1.91-1.24,1.23-1.56,2.55-3.65,12.57l-.66,3.17c-.5,2.41-1.03,4.81-1.54,7.21-.49,2.26-.98,4.52-1.46,6.79-1.64,7.78-3.38,12.26-5.59,17.93-1.03,2.65-2.2,5.66-3.49,9.37-1.61,4.64-3.18,12.16-5.55,23.55-1.4,6.71-3.14,15.06-5.37,25.17-.97,4.38-2.03,9.16-2.45,12.19,4.78-5.58,14.01-21.41,17.85-27.99,3.15-5.41,4.72-8.36,6.53-11.79,2.04-3.85,4.35-8.22,9.46-17.19,3.04-5.33,7.05-11.92,15.04-25.06,8.45-13.9,10.45-16.94,14.46-20.56,3.16-2.85,10.56-9.54,22.24-11.61,7.27-1.29,21-2,31.16,7.65,6.36,6.04,8.27,12.32,8.76,16.52,1.06,9.14-3.51,15.73-10.43,25.71-4.24,6.11-10.64,15.34-21.97,20.83-2.5,1.21-6.7,3.24-12.69,4.22-3.89,.63-6.44,.48-8.31,.37-1.75-.1-2.21-.1-2.69,.23-2.01,1.37-3.29,7.23-1.71,15.39,1.56,8.09,5.2,14.3,8.84,15.11,1.81,.4,3.65-.68,8.07-3.64,15.06-10.06,22.62-15.12,27.7-19.77,7.74-7.07,17.37-15.88,28.75-29.74,1.45-1.77,2.87-3.54,4.27-5.3,7.14-8.93,14.52-18.16,26.25-26.18,2.36-1.62,7.9-5.4,15.4-5.44,8.43,0,16.2,4.49,18.6,7.77,1.1,1.51,1.04,2.74,.79,3.5-.4,1.24-1.31,1.89-2.56,2.21,3.8,1.77,7.95,4.37,11.15,8.48h0c6.13,7.87,5.79,17.71,5.53,25.62-.43,12.68-4.86,21.99-7.24,26.99-4.46,9.37-9.7,15.69-12.43,18.63-3.7,3.99-10.59,11.41-21.96,15.64-5.55,2.07-17.08,6.36-25.29,.72-1.02-.7-2.31-2.42-7.59-9.57-6.72-9.1-7.69-10.96-8.32-12.58-1.37-3.53-1.67-6.39-1.86-8.28-.01-.12-.03-.25-.04-.38-1.33,1.14-3.91,3.7-8.88,9.39-2.03,2.33-3.32,3.86-4.26,4.98-1.58,1.88-2.3,2.74-3.94,4.23-2.01,1.81-3.07,2.47-7.02,4.93-1.36,.84-3.08,1.91-5.32,3.33-2,1.26-3.66,2.33-5.08,3.23-6.06,3.88-7.89,5.05-11.59,6.06-2.31,.63-6.17,1.69-10.98,1.07-5.38-.7-9.04-3.23-15.1-7.42-4.92-3.41-9.57-6.63-14.49-12.44-3.87-4.58-6.42-7.6-8.42-12.7-.38-.97-.68-1.86-.94-2.64-.09-.27-.19-.57-.29-.85-.67,.92-1.71,2.61-3.2,5.67-2.24,4.59-3.26,7.69-4.25,10.68-.77,2.32-1.5,4.51-2.71,7.24-.93,2.09-1.4,2.78-2.42,4.27-.94,1.38-2.52,3.7-5.72,9-1.94,3.22-3.4,5.75-4.57,7.78-3.18,5.51-4.5,7.79-7.91,10.8-2.48,2.18-6.23,5.48-12.2,6.58-1.36,.25-2.68,.36-3.93,.36l-.02,.03Zm-23.95-96.68c.4,.25,.93,.55,1.33,.77,2.27,1.27,4.62,2.59,4.94,4.85,.15,1.1-.23,2.16-1.07,3-2.41,2.79-10.27,31.3-10.27,41.23,0,11.5,.59,19.05,3.59,23.63,.09,.1,.65,.65,1.66,1.65,1.13,1.12,2.98,2.93,6.01,5.95l1.49,1.48c5.77,5.73,6.35,6.29,7.88,7.07,2.09,1.06,6.35,2.7,11.42,1.77,4.61-.85,7.61-3.49,9.8-5.42,2.8-2.46,3.83-4.25,6.89-9.55,1.18-2.05,2.66-4.61,4.62-7.87,3.27-5.43,4.9-7.81,5.88-9.24,.97-1.42,1.23-1.81,1.98-3.49,1.11-2.5,1.8-4.58,2.53-6.78,1.04-3.15,2.12-6.41,4.51-11.3,3.59-7.36,5.85-9.81,8.63-9.37,2.5,.39,3.27,2.71,4.09,5.16,.24,.72,.52,1.55,.85,2.4,1.7,4.33,3.91,6.95,7.58,11.3,4.49,5.31,8.87,8.35,13.51,11.56,6.2,4.29,8.88,6.06,12.9,6.58,3.82,.49,6.82-.33,9.02-.93,2.97-.81,4.36-1.7,10.22-5.45,1.43-.91,3.1-1.98,5.11-3.25,2.26-1.43,3.99-2.5,5.35-3.35,3.83-2.38,4.63-2.88,6.31-4.39,1.38-1.25,1.91-1.87,3.46-3.73,.95-1.14,2.26-2.7,4.33-5.06,10.34-11.82,12.25-12.6,14.73-11.71,2.45,.88,2.71,3.31,2.93,5.46,.19,1.82,.43,4.08,1.55,6.99,.33,.86,.83,2.15,7.68,11.42,3.23,4.37,5.79,7.83,6.47,8.47,6.07,4.11,15.91,.44,20.65-1.32,10.25-3.82,16.38-10.42,20.04-14.36,2.04-2.19,7.25-8.28,11.57-17.37,2.22-4.67,6.36-13.37,6.76-25.01,.25-7.47,.54-15.94-4.47-22.38-4.33-5.56-11.22-7.94-15.34-9.36-3.11-1.07-5.79-2-5.11-4.77,.66-2.72,3.69-2.53,7.52-2.29,.33,.02,.71,.04,1.11,.07-2.67-1.74-7.15-3.71-12.18-3.69-5.26,.03-9.32,2.32-12.6,4.56-11.11,7.59-17.93,16.13-25.16,25.17-1.42,1.78-2.85,3.56-4.32,5.35-11.61,14.14-21.39,23.08-29.25,30.26-5.37,4.91-13.03,10.03-28.3,20.23-4.57,3.05-7.86,5.26-11.93,4.36-6.93-1.53-11.09-10.84-12.67-19.04-1.47-7.63-1.25-17.02,3.8-20.47,1.94-1.32,3.82-1.21,5.81-1.09,1.72,.1,3.86,.23,7.2-.31,5.27-.86,9.05-2.69,11.31-3.78,10.15-4.91,15.86-13.15,20.03-19.17,6.71-9.69,10.41-15.02,9.57-22.29-.39-3.38-1.97-8.47-7.24-13.48-8.57-8.14-20.49-7.47-26.84-6.35-10.27,1.82-16.92,7.83-19.76,10.39-3.35,3.03-5,5.39-13.54,19.44-7.96,13.1-11.96,19.67-14.96,24.94-5.07,8.9-7.36,13.23-9.38,17.05-1.84,3.48-3.42,6.48-6.63,11.97-17.11,29.33-21.29,33.72-25.16,32.03-3.49-1.52-2.47-6.14,.56-19.83,2.23-10.07,3.96-18.41,5.36-25.11,2.5-11.99,4.01-19.23,5.72-24.17,1.32-3.8,2.51-6.85,3.56-9.55,2.13-5.46,3.81-9.77,5.36-17.15,.48-2.27,.97-4.54,1.46-6.81,.52-2.39,1.04-4.79,1.54-7.18l.66-3.16c2.26-10.82,2.67-12.77,5.02-15.1,2.84-2.82,5.61-3.03,9.8-3.34,2.61-.2,5.85-.44,10.48-1.34,3.92-.76,5.55-1.35,8.03-2.25,2.44-.89,5.48-1.99,11.79-3.71,6.52-1.77,13.26-3.61,22.26-5.06,2.17-.35,4.13-.62,5.94-.87,6.93-.96,11.12-1.55,16.1-4.76l.14-.09c1.52-.98,2.91-1.88,3.84-2.53-.63-.24-1.62-.53-3.11-.83-11.17-2.25-23.22,0-33.86,1.97l-.19,.04c-7.33,1.36-12.37,2.29-15.91,2.94-8.05,1.48-8.24,1.51-9.81,2-2.79,.85-5.22,1.71-7.36,2.46-6.22,2.19-9.97,3.51-12.28,.75-1.94-2.31-.8-4.9,1.67-10.59,1.23-2.82,2.91-6.68,4.91-11.91,2.62-6.86,3.14-9.37,2.24-10.74-.9-1.38-3.28-2.04-6.58-2.96-3.26-.91-5.6-1.56-7.67-1-2.15,.59-3.23,2.38-6.03,7.46-.71,1.3-1.52,2.75-2.46,4.38-3.26,5.65-5.14,8.08-6.64,10.03-1.44,1.87-2.49,3.23-4.29,6.83-2.81,5.62-3.46,8.73-3.99,11.22-.53,2.49-.98,4.64-3.39,7.33-3.38,3.78-6.55,4.2-11.8,4.9-4.06,.54-9.61,1.28-18.37,3.83-.06,.02-6.74,2.05-25.55,11.82-1.04,.54-2.78,1.44-4.15,3.28-.8,1.07-1.06,1.9-1.47,3.17-.3,.95-.64,2.02-1.26,3.38-.93,2.02-1.72,2.99-2.92,4.46-.6,.74-1.36,1.66-2.35,2.99-2.44,3.28-3.89,5.74-4.84,7.37-1.31,2.24-2.44,4.17-4.79,3.56-2.7-.7-2.67-3.38-2.6-8.71,.04-3.11,.1-7.36-.27-12.53-.67-9.44-1.97-11.12-2.22-11.36-3.27-3.1-11.2-2.53-15.71,1.13-3.89,3.15-4.24,7.93-4.87,16.61-.27,3.69-.57,7.86-1.23,12.78-1.34,10.09-3.6,17.55-8.08,32.39-8.93,29.55-13.41,44.37-19.28,53.62l-.15,.24c-.97,1.51-2.58,4.04-2.46,7.24,.04,.3,.46,2.62,3.48,9.46,3.24,2.04,6.19,4.37,8.79,6.95,.63,.63,1.21,1.23,1.75,1.81,2.09,2.2,3.17,3.27,4.82,3.49,1.09,.15,1.98-.15,3.75-.85,6.06-2.4,10.07-3.99,12.47-5.71,3.8-2.72,4.75-6.84,6.63-15.05,.84-3.65,1.88-8.19,3.43-13.6,2.61-9.11,5.19-15.53,9.08-25.24,4.94-12.3,9.29-21.57,12.08-27.18,1.77-3.57,2.9-5.65,3.81-7.32,1.23-2.27,1.9-3.51,3.11-6.5,.4-.99,.76-1.93,1.09-2.79,1.68-4.38,2.68-7.03,5.46-6.76,2.7,.26,3.06,3.05,3.4,5.76,.41,3.18,.96,7.54,3.87,9.74,.49,.32,3.1,1.36,6.41,2.67,1.89,.75,4.01,1.54,5.58,2.12l2.58-7.12c-1.58-.76-2.98-1.85-4-3.06-2.34-2.77-2.22-5.44-2.08-8.54,.1-2.18,.22-4.89-.47-8.61-.46-2.48-1.05-4.21-1.53-5.61-.8-2.34-1.5-4.36-.26-6.93,1.43-2.98,4.01-3.82,7.9-5.09,1.02-.33,2.19-.71,3.51-1.18,5.39-1.92,9.19-3.85,11.96-5.25,3.79-1.92,6.53-3.32,8.66-1.14,1.7,1.74,.9,3.73-.12,6.25-.58,1.44-1.38,3.41-2.28,6.26h0c-1.48,4.65-2.27,6.75-3.19,9.18-.71,1.9-1.52,4.05-2.83,7.87-.71,2.07-1.3,3.86-1.81,5.41-2.42,7.32-3.33,10.06-6.79,11.17-1.5,.48-3.08,.44-4.59,.05l-.6,8.7v-.04Zm.95-13.85c.98,.42,1.97,.56,2.72,.32,.98-.31,1.68-2.29,3.56-7.97,.52-1.56,1.11-3.36,1.83-5.46,1.33-3.89,2.16-6.08,2.88-8.01,.93-2.47,1.66-4.42,3.1-8.94h0c.86-2.71,1.62-4.66,2.21-6.12-.47,.23-.97,.48-1.44,.73-2.9,1.47-6.86,3.48-12.55,5.51-1.38,.49-2.58,.88-3.64,1.23-3.6,1.17-4.48,1.54-4.94,2.5-.31,.64-.25,.99,.49,3.14,.5,1.47,1.19,3.48,1.72,6.32,.79,4.29,.65,7.44,.55,9.75-.13,2.84-.12,3.88,.9,5.09,.52,.62,1.19,1.15,1.9,1.55l.92-2.53-.2,2.88h0Zm196.88,43.32c-.48,0-.95-.11-1.43-.32-2.55-1.15-2.95-4.46-1.4-11.82,1.07-5.1,2.8-10.73,4.07-14.3,1.43-4.02,3.66-8.45,8.12-17.29,5.56-11.02,7.39-13.74,10.54-13.35,5.21,.64,6.24,10.69,6.2,14.51-.07,6.15-2.27,11.37-9.41,22.34h0c-9.3,14.29-13.18,20.24-16.69,20.24h0Zm19.42-51.58c-1.06,1.44-2.93,4.82-5.59,10.09-4.37,8.65-6.56,12.99-7.88,16.71-2.54,7.17-4.23,14.29-4.63,18.07,2.61-3.12,6.95-9.78,11.18-16.27l2.1,1.36-2.09-1.36c7.25-11.13,8.54-15.21,8.59-19.66,.04-3.99-.9-7.47-1.67-8.94h0Zm-113.71,23.52c-.45,0-.92-.12-1.41-.42-2.15-1.3-1.42-3.34,.04-7.43,.26-.74,.56-1.58,.9-2.54h0c2.26-6.49,3.11-9.87,3.73-12.35,.63-2.51,1.05-4.16,2.38-6.92,2.79-5.78,10.75-17.63,16.26-15.2,5.39,2.37,1.41,14.93,1.37,15.05-1.38,4.29-3.42,6.81-6.79,11l-.65,.8c-3.72,4.63-6.51,8.26-8.54,10.91-1.74,2.26-3,3.9-3.9,4.95-.61,.7-1.85,2.14-3.39,2.14h0Zm19.65-39.84c-2.1,1.3-6.54,6.23-9.51,12.38-1.11,2.3-1.44,3.6-2.03,5.96-.48,1.9-1.09,4.33-2.32,8.19,1.69-2.18,3.72-4.78,6.16-7.81l.65-.81c3.21-3.99,4.82-5.99,5.92-9.4,1.08-3.37,1.38-6.89,1.15-8.53l-.02,.02Z"
              fill="#fff" />
          </g>
          <g>
            <path
              d="M842.5,185.5c-1.69-.48-3.68,2.19-6,5,0,0-3.54,4.29-17,17-2.95,2.78-2.86,2.17-22,14-16.32,10.09-19.25,12.31-23,11-5.06-1.77-6.87-8.32-9-16-1.55-5.61-5.79-20.93,2-35,2.74-4.94,6.16-8.28,11-13,5.41-5.27,8.11-7.91,12-9,7.58-2.12,13.81,1.97,16-1,1.26-1.71,.21-4.45,0-5-3.76-9.81-29.23-15.32-49-7-2.23,.94-12.78,5.58-21,17-2.6,3.61-7.97,11.27-9,22-1.75,18.3,10.21,34.27,13,38,6.63,8.86,13.65,13.6,12,19-.58,1.9-2.01,3.14-7,6-11.69,6.71-16.15,7.02-23,11-4.94,2.87-12.61,7.33-16,16-2.99,7.63-1.23,14.89,0,20,.48,1.98,2.54,9.89,9,18,7.4,9.28,16.16,13.3,20,15,5.07,2.25,17.99,7.99,34,4,4-1,19.78-5.2,29-21,1.15-1.98,9.02-15.93,5-32-4.46-17.85-20.41-25.57-17-33,.8-1.74,1.74-1.46,10-6,1.14-.63,10.62-5.87,19-12,4.8-3.51,8.2-6.67,15-13,11.68-10.86,13.24-13.97,14-17,1.4-5.59,.39-12.33-2-13Zm-79,85c-.01,4.54-.03,10.25-3,17-3.72,8.47-9.66,13.01-11,14-1.49,1.1-11.2,8.27-16,5-1.62-1.11-2.1-3.42-3-8-1.2-6.14-1.93-9.85-1-14,1.36-6.1,5.5-9.56,12-15,5.16-4.32,15.51-12.98,20-10,2.03,1.35,2.02,4.57,2,11Z"
              fill="#198754" />
            <path
              d="M758.33,336.37c-11.27,0-19.97-3.87-23.85-5.59-3.56-1.58-13.01-5.78-20.94-15.73-6.11-7.66-8.56-15.18-9.47-18.97-1.26-5.23-3.17-13.13,.1-21.5,3.71-9.48,12.07-14.34,17.07-17.25,3.16-1.84,5.88-2.95,8.77-4.13,3.67-1.5,7.84-3.2,14.25-6.88,4.6-2.64,5.55-3.58,5.85-4.56,.7-2.3-1.55-4.99-5.58-9.54-1.85-2.09-3.95-4.46-6.03-7.23-12.67-16.92-14.33-30.95-13.49-39.74,1.11-11.63,6.96-19.75,9.46-23.22,7.98-11.08,18.08-16.17,22.06-17.84,15.01-6.32,32.3-4.74,42-.6,5.36,2.28,8.92,5.4,10.3,9.01,1.13,2.94,1.01,5.56-.32,7.38-1.99,2.7-5.25,2.24-8.4,1.8-2.66-.37-5.68-.79-8.94,.12-3.27,.92-5.67,3.25-10.92,8.38-4.82,4.7-8,7.81-10.56,12.43-7.3,13.17-3.29,27.67-1.78,33.12,1.93,6.96,3.59,12.97,7.42,14.31,2.17,.77,4.72-.75,16.37-7.98,1.37-.85,2.86-1.78,4.49-2.78,6.88-4.25,11.3-6.91,14.22-8.67,5.28-3.18,5.72-3.46,7.38-5.02,13.1-12.37,16.75-16.73,16.79-16.78l.58-.7c2.52-3.08,4.9-5.99,8.03-5.11,4.66,1.31,5.17,10.3,3.75,16.01-.86,3.45-2.42,6.78-14.72,18.23-6.88,6.4-10.32,9.6-15.23,13.19-8.25,6.04-17.5,11.2-19.27,12.17-3.01,1.65-5.1,2.7-6.49,3.39-2.3,1.15-2.33,1.21-2.44,1.46-.98,2.15,1.16,4.96,5.04,9.76,4.33,5.35,9.71,12,12.11,21.59,4.14,16.55-3.66,31.11-5.27,33.87-6.41,10.98-17.26,18.85-30.55,22.17-4.14,1.03-8.1,1.44-11.77,1.44h-.02Zm20.19-191.44c-6.49,0-13.5,1.11-20.05,3.87-3.58,1.51-12.7,6.1-19.94,16.16-2.26,3.14-7.56,10.5-8.54,20.78-.76,7.91,.8,20.62,12.51,36.26,1.95,2.61,3.98,4.89,5.77,6.91,4.57,5.15,8.18,9.22,6.62,14.32-.87,2.84-2.89,4.42-8.15,7.44-6.7,3.85-11.03,5.61-14.85,7.17-2.84,1.16-5.29,2.16-8.14,3.82-4.72,2.75-11.85,6.9-14.93,14.75-2.7,6.9-1.08,13.6,.1,18.5,.66,2.74,2.81,9.86,8.53,17.03,7.17,8.99,15.81,12.83,19.06,14.27,5.15,2.29,17.2,7.64,32.38,3.86,6.94-1.73,19.72-6.6,27.45-19.83,1.43-2.46,8.4-15.46,4.73-30.13-2.13-8.52-7.13-14.7-11.15-19.66-4.31-5.32-8.02-9.92-5.7-14.99,.88-1.92,2.01-2.48,4.76-3.85,1.43-.71,3.39-1.69,6.31-3.3,1.72-.95,10.72-5.97,18.73-11.83,4.67-3.42,8.04-6.55,14.74-12.79,11.28-10.49,12.7-13.36,13.31-15.8,1.05-4.22,.44-8.23-.24-9.67-.78,.65-1.97,2.11-2.82,3.14l-.59,.72c-.15,.18-3.79,4.56-17.21,17.23-2.09,1.97-2.91,2.46-8.23,5.67-2.92,1.75-7.32,4.41-14.17,8.64-1.62,1-3.11,1.93-4.48,2.78-13.06,8.11-16.16,10.03-20.66,8.46-6.3-2.2-8.28-9.38-10.58-17.69-1.66-5.99-6.07-21.92,2.22-36.88,2.92-5.26,6.49-8.75,11.44-13.58,5.53-5.39,8.57-8.36,13.07-9.62,4.26-1.19,8.14-.65,10.97-.26,1.3,.18,3.26,.46,3.69,.19,.12-.16,.31-.98-.32-2.62-.88-2.28-3.57-4.48-7.59-6.2-4.57-1.95-11-3.26-18.05-3.26h0Zm-42.01,164.89c-1.59,0-3.1-.37-4.42-1.27-2.5-1.71-3.08-4.67-4.04-9.59-1.22-6.24-2.03-10.36-.99-15.03,1.55-6.92,6.28-10.89,12.83-16.37,8.2-6.86,17.41-13.87,22.99-10.17,3.15,2.09,3.14,6,3.12,13.09h0c-.01,4.56-.04,10.79-3.21,18.01-3.7,8.41-9.49,13.29-11.8,15-3.58,2.64-9.47,6.32-14.48,6.32h0Zm22.61-48.5c-2.02,0-6.45,2.09-16.01,10.09-6.23,5.21-9.99,8.36-11.17,13.63-.81,3.64-.16,6.96,1.01,12.97,.64,3.28,1.15,5.86,1.96,6.42,1.99,1.36,7.26-.63,13.1-4.94,2-1.47,6.98-5.69,10.2-13,2.76-6.27,2.77-11.66,2.79-16h0c.01-4.46,.03-8.31-.88-8.91-.24-.16-.56-.26-1-.26Z"
              fill="#fff" />
          </g>
          <g>
            <path
              d="M44.5,588.5c-8.24-9.84-3.22-22.63,4-59,5.23-26.35,3.4-23.65,11-63,3.75-19.43,6.26-30.75,10-44,4.66-16.5,4.39-11.76,9-28,5.73-20.17,7.21-31.22,14-33,1.17-.31,4.13,.46,10,2,10.56,2.77,15.84,4.16,17,5,7.46,5.38,2.83,18.02,3,47,.08,13.88,1.22,24.74,2,32,1.6,14.88,2.47,13.9,6,40,1.31,9.67,3.16,19.28,4,29,.65,7.52,.8,12.86,2,13,1.74,.2,4.13-10.77,6-18,5.43-20.95,9.74-22.78,22-53,14.42-35.56,11.61-30.68,18-51,2.72-8.64,9.64-25.81,14-38,.48-1.35,.34-5.29,1-13,.81-9.56,1.17-11.78,3-13,3.06-2.05,8.87-.39,12,3,4.64,5.02,2.94,13.3,1,22-4.98,22.28-7.47,33.42-10,40-8.22,21.37-12.56,44.03-19,66-5.49,18.72-13.56,36.8-17,56-1.05,5.87-2.77,16.89-10,29-5.57,9.33-8.25,15.74-14,17-10.7,2.34-24.06-13.37-30-27-1.96-4.49-1.58-5.25-6-34-4.1-26.65-4.08-23.77-5-32-2.06-18.35-1.84-29.79-4-30-1.2-.12-2.47,3.32-4,8-5.59,17.06-7.91,29.83-10,39-3.15,13.81-3.72,10.44-8,28-3,12.31-3.46,16.99-7,28-3.13,9.71-3.87,9.48-5,15-2.89,14.1,.73,21.52-3,24-3.61,2.4-12.12-1.17-17-7Z"
              fill="#dc3545" />
            <path
              d="M58.56,598.76c-5.23,0-11.91-3.8-15.97-8.66h0c-7.52-8.98-5.22-19.8-.18-43.51,1.1-5.15,2.34-10.99,3.65-17.58,2.42-12.2,3.32-18.12,4.36-24.96,1.2-7.94,2.57-16.93,6.64-38.02,3.94-20.37,6.47-31.53,10.05-44.2,2.38-8.42,3.51-11.45,4.61-14.37,1.05-2.79,2.13-5.68,4.39-13.63,1.08-3.79,2.02-7.31,2.85-10.42,3.88-14.52,6.01-22.51,12.93-24.32,1.75-.45,4.1,.12,11.27,2,12.92,3.4,16.35,4.33,17.83,5.39,6.1,4.4,5.65,11.86,4.83,25.41-.38,6.27-.85,14.08-.8,23.61,.08,14.03,1.27,25.12,1.99,31.75,.78,7.26,1.39,10.69,2.22,15.44,.88,5,1.98,11.22,3.77,24.49,.45,3.37,.99,6.79,1.5,10.11,.96,6.2,1.96,12.61,2.51,19.01,.12,1.37,.22,2.67,.31,3.88,.03,.38,.06,.77,.09,1.17,.63-2.27,1.24-4.74,1.72-6.64,.33-1.33,.66-2.63,.97-3.82,3.23-12.44,6.04-18.23,10.31-26.99,2.99-6.14,6.7-13.77,11.79-26.32,10.7-26.38,11.85-30.35,14.39-39.05,.85-2.92,1.91-6.56,3.55-11.76,1.62-5.16,4.64-13.1,7.84-21.52,2.17-5.7,4.4-11.58,6.19-16.57,.14-.45,.24-2.31,.33-4.1,.1-2.02,.24-4.78,.54-8.27,.85-9.97,1.22-12.93,4.1-14.86,4.4-2.95,11.56-.59,15.23,3.38,5.65,6.12,3.5,15.75,1.6,24.24-5,22.37-7.51,33.6-10.11,40.35-5.28,13.72-9.02,28.29-12.64,42.38-1.98,7.7-4.02,15.66-6.3,23.42-1.98,6.76-4.33,13.52-6.6,20.06-4.01,11.57-8.17,23.54-10.34,35.67l-.14,.81c-1.06,5.96-3.03,17.06-10.17,29.03-.92,1.54-1.76,3-2.55,4.37-4.18,7.26-7.19,12.5-13.06,13.79-12.87,2.81-26.94-14.94-32.83-28.44-1.55-3.57-1.77-5.06-3.49-16.68-.64-4.32-1.49-10.08-2.69-17.94-2.02-13.14-3.05-19.14-3.66-22.73-.64-3.73-.88-5.13-1.35-9.37-.72-6.38-1.16-11.96-1.52-16.45-.22-2.76-.44-5.57-.69-7.8-.39,1.11-.74,2.17-.93,2.75-4.48,13.69-6.81,24.46-8.69,33.11-.44,2.02-.85,3.91-1.25,5.67-1.57,6.86-2.54,9.66-3.57,12.63-1.06,3.06-2.27,6.53-4.44,15.41-1.01,4.13-1.73,7.44-2.38,10.35-1.28,5.82-2.29,10.42-4.67,17.82-1.42,4.42-2.37,6.85-3.06,8.62-.83,2.11-1.28,3.28-1.87,6.12-1.33,6.47-1.22,11.57-1.15,15.29,.09,4.6,.17,8.24-2.92,10.29-1.22,.81-2.7,1.18-4.33,1.18v-.02Zm34.62-234.83h-.14c-4.02,1.06-6,8.47-9.28,20.76-.83,3.12-1.78,6.66-2.87,10.49-2.31,8.15-3.44,11.13-4.52,14.02-1.11,2.96-2.16,5.75-4.48,13.97-3.53,12.52-6.05,23.58-9.95,43.79-4.05,20.99-5.41,29.93-6.61,37.83-1.05,6.91-1.95,12.87-4.4,25.19-1.32,6.62-2.56,12.48-3.66,17.65-4.83,22.73-6.83,32.14-.88,39.26h0c4.48,5.35,11.71,7.84,13.7,6.52,.8-.53,.75-2.96,.69-6.02-.08-3.96-.19-9.38,1.25-16.4,.67-3.26,1.24-4.72,2.11-6.94,.67-1.71,1.59-4.05,2.96-8.33,2.31-7.18,3.3-11.67,4.55-17.36,.65-2.94,1.38-6.27,2.4-10.46,2.22-9.12,3.47-12.71,4.57-15.87,1.03-2.95,1.92-5.5,3.42-12.09,.4-1.74,.8-3.61,1.24-5.62,1.9-8.77,4.26-19.67,8.82-33.61,1.91-5.82,3.29-10.03,6.62-9.71,3.5,.34,3.81,4.26,4.74,15.92,.35,4.45,.8,9.99,1.5,16.29,.46,4.1,.67,5.35,1.31,9.09,.62,3.6,1.65,9.63,3.67,22.81,1.21,7.87,2.06,13.64,2.7,17.97,1.71,11.58,1.87,12.53,3.12,15.41,5.93,13.61,18.54,27.45,27.17,25.56,3.71-.81,6.13-5.02,9.8-11.4,.8-1.39,1.66-2.88,2.59-4.44,6.67-11.18,8.47-21.3,9.54-27.34l.15-.82c2.24-12.52,6.46-24.67,10.54-36.43,2.25-6.48,4.57-13.19,6.52-19.83,2.25-7.68,4.29-15.6,6.25-23.26,3.65-14.23,7.43-28.95,12.81-42.94,2.47-6.41,4.95-17.52,9.89-39.65,2.04-9.12,3.2-15.87-.4-19.76-2.57-2.78-7.04-3.78-8.77-2.62-.87,.58-1.23,3.29-1.9,11.14-.29,3.4-.43,6.12-.52,8.1-.15,2.96-.22,4.44-.61,5.53-1.8,5.04-4.05,10.95-6.22,16.67-3.17,8.34-6.17,16.22-7.75,21.24-1.62,5.15-2.63,8.61-3.51,11.66-2.58,8.87-3.76,12.92-14.55,39.53-5.15,12.7-8.91,20.42-11.93,26.63-4.13,8.49-6.87,14.1-9.97,26.06-.31,1.18-.63,2.46-.96,3.78-3.06,12.25-4.29,16.47-7.75,16.08-3.03-.34-3.26-3.36-3.9-11.42-.09-1.2-.19-2.49-.31-3.84-.54-6.23-1.52-12.55-2.47-18.67-.52-3.34-1.06-6.79-1.52-10.21-1.78-13.17-2.87-19.34-3.74-24.29-.85-4.84-1.47-8.34-2.27-15.77-.72-6.72-1.93-17.97-2.01-32.25-.06-9.69,.42-17.59,.81-23.94,.79-12.99,.96-18.36-2.77-21.05-1.03-.63-7.36-2.29-16.12-4.6-3.94-1.04-7.62-2-8.73-2h.03Z"
              fill="#fff" />
          </g>
          <g>
            <path
              d="M485.5,307.5c-5.38-.58-9.91,2.59-14,6-16.5,13.73-23,27-23,27-23.92,45.58-29.1,42.66-43,77-5.57,13.76-12.09,32.39-13,35-7.38,21.13-11.83,36.29-13,36-1.23-.31,2.93-17.21,4-44,0,0,.37-9.16-3-28-1.31-7.31-2.71-12.7-7-15-2.32-1.24-5.41-1.55-10-2-3.92-.39-5.88-.58-7,0-4.38,2.28-2.76,12.61-2,22,1.44,17.8,2.36,29.12-2,39-3.44,7.78-6.51,6.41-25,24-15.32,14.57-21.57,23.46-24,22-1.82-1.09,.98-6.53,4-24,1.9-10.99,1.29-11.72,3-18,.95-3.48,3.31-9.04,8-20,2.82-6.6,5.09-13.44,8-20,2.57-5.8,5-10.74,3-13-1.48-1.67-5.44-1.96-6-2-2.26-.16-2.61,.4-4,0-2.5-.72-2.79-2.96-5-5-2.65-2.45-6.04-2.74-9-3,0,0-5.57-.49-11,2-10.36,4.75-8.37,15.4-17,23-9.12,8.03-3-5-37,8-11.32,4.33-19.52,10.2-24,14-8.56,7.27-13.46,14.62-17,20-6.03,9.18-9.3,17.21-11,22-3.39,9.53-5.29,14.86-4,22,.47,2.62,2.02,10.52,9,16,5.35,4.2,11.14,4.82,13,5,1.11,.11,4.23,.33,10-1,5.29-1.22,12.45-2.86,19-8,2.23-1.75,7.15-7.83,17-20,1.71-2.12,4.55-5.64,6-5,1.06,.46,.65,2.82,1,7,0,0,.41,4.95,2,10,1.22,3.88,3.48,6.59,8,12,3.77,4.52,6.85,7.34,13,13,6.02,5.53,7.47,6.36,9,7,6.08,2.52,11.84,1.27,13,1,7.05-1.66,11.11-6.61,18-15,.84-1.03,3.9-5.35,10-14,0,0,4.85-6.87,9-13,1.31-1.93,1.96-2.9,2.35-3.5,2.97-4.54,3.3-5.58,3.65-5.5,1.2,.28-2.4,13.34-3,31-.5,14.49,1.64,14.17,0,22-.65,3.11-1.96,7.85,0,13,.31,.82,1.41,3.5,4,6,4.85,4.69,10.96,4.92,13,5,2.47,.09,6.42,.24,10-2,4.38-2.74,5.04-7.09,8-15,2.46-6.56,6.04-12.65,9-19,6.69-14.36,7.81-16.1,10-21,5.31-11.87,6.99-20.17,11-37,7.11-29.85,10.66-44.78,14-54,4.89-13.51,4.81-9.38,20-45,5.14-12.05,7.22-17.38,12-26,5.87-10.58,13.45-24.25,23-30,3.88-2.34,7.29-5.4,11-8,3.39-2.38,4.99-3.42,5-5,.02-2.74-4.74-5.54-9-6Zm-215,141c-5.01,9.38-11.77,13.33-19,19-9.73,7.63-7.04,7.98-29,28-6.88,6.27-11.04,9.79-12,9-.7-.57,.72-3.09,7-16,3.74-7.68,3.9-8.15,5-10,1.14-1.91,3.85-6.25,10-13,4.72-5.18,9.2-10.11,16-15,8.15-5.86,21.39-12.96,24-10,1.39,1.57-.66,5.48-2,8Z"
              fill="#dc3545" />
            <path
              d="M363.34,578.04c-.71,0-1.37-.02-1.94-.05-2.25-.08-9.1-.34-14.64-5.7-2.71-2.62-4.04-5.45-4.6-6.91-2.06-5.41-.99-10.34-.28-13.6l.17-.8c.78-3.75,.63-5.33,.34-8.2-.27-2.68-.63-6.36-.39-13.37,.29-8.4,1.23-15.73,2.04-21.21-.13,.19-.26,.39-.41,.6l-.07,.1c-4.11,6.08-8.98,12.97-9.03,13.04-6.32,8.96-9.21,13.05-10.11,14.14-7.17,8.73-11.49,13.99-19.36,15.85-2.27,.53-8.22,1.49-14.53-1.12-1.82-.76-3.39-1.64-9.73-7.47-6.22-5.72-9.35-8.59-13.23-13.24-4.58-5.48-7.1-8.5-8.47-12.85-1.65-5.25-2.09-10.33-2.11-10.54-.11-1.33-.15-2.49-.18-3.43-.9,.96-1.87,2.15-2.36,2.76-10.3,12.73-14.98,18.51-17.43,20.43-6.99,5.48-14.5,7.21-19.98,8.47-4.24,.98-7.88,1.33-10.8,1.05-5.49-.52-10.3-2.38-14.31-5.52-5.22-4.1-8.56-10-9.92-17.52-1.4-7.8,.67-13.62,4.1-23.28,2.77-7.79,6.56-15.37,11.27-22.53,3.37-5.13,8.46-12.89,17.47-20.53,3.98-3.38,12.49-9.75,24.72-14.43,20.72-7.92,27.19-6.47,31.06-5.61,2.01,.45,2.38,.53,5.18-1.93,3.42-3.01,4.96-6.54,6.59-10.28,2.16-4.96,4.4-10.08,11.02-13.11,5.96-2.73,12.01-2.24,12.26-2.22,3.21,.28,7.2,.63,10.48,3.65,1.06,.97,1.75,1.97,2.3,2.77,.81,1.17,1.09,1.49,1.7,1.67,.23,.07,.25,.07,.75,0,.6-.08,1.42-.19,2.74-.09,2.53,.18,5.91,.82,7.69,2.84,2.93,3.31,.62,8.49-2.06,14.47l-.53,1.2c-1.54,3.47-2.93,7.1-4.27,10.61-1.18,3.08-2.39,6.26-3.72,9.36-4.49,10.5-6.96,16.29-7.89,19.67-.93,3.4-1.12,5-1.49,7.89-.28,2.26-.63,5.08-1.46,9.88-1.29,7.44-2.51,12.62-3.4,16.4-.29,1.25-.58,2.46-.79,3.47,1.62-1.46,3.92-3.86,6.31-6.35,3.54-3.69,7.95-8.29,13.7-13.76,8.04-7.64,13.27-11.8,16.73-14.56,4.49-3.57,6-4.77,7.71-8.64,4.1-9.3,3.24-20.02,1.8-37.79-.1-1.19-.21-2.4-.32-3.61-.85-9.28-1.65-18.05,3.66-20.81,1.78-.93,3.86-.72,8.4-.27,4.75,.47,8.18,.81,10.93,2.28,5.41,2.89,6.95,9.3,8.28,16.76,3.38,18.89,3.05,28.15,3.04,28.54-.39,9.77-1.19,18.27-1.99,25.11,1.78-5.32,3.79-11.31,6.14-18.04,1.22-3.5,7.6-21.67,13.04-35.11,7.69-19,12.72-26.7,19.69-37.36,5.63-8.6,12.63-19.31,23.41-39.87,.24-.5,6.9-13.84,23.61-27.76,4.57-3.8,9.65-7.23,15.87-6.56,4.73,.51,11.27,3.74,11.23,8.5-.02,2.8-2.12,4.26-5.59,6.7l-.47,.33c-1.39,.98-2.79,2.06-4.13,3.1-2.22,1.72-4.51,3.49-7.01,5-8.98,5.4-16.26,18.53-22.1,29.07-4.06,7.32-6.14,12.23-9.92,21.14-.61,1.43-1.26,2.97-1.97,4.63-8.1,18.99-11.88,26.73-14.37,31.84-2.15,4.4-3.33,6.82-5.58,13.03-3.29,9.08-6.84,24-13.91,53.71l-1.13,4.77c-3.21,13.58-5.15,21.78-10.02,32.69-.98,2.18-1.76,3.79-2.85,6.02-1.44,2.94-3.41,6.96-7.16,15.02-1.08,2.31-2.24,4.6-3.37,6.82-1.98,3.89-4.03,7.92-5.56,12-.58,1.55-1.07,2.96-1.52,4.25-1.88,5.42-3.24,9.33-7.5,12-3.33,2.09-6.83,2.42-9.48,2.42v-.02Zm-15.95-82.06c.22,0,.44,.03,.69,.08,2.76,.65,2.41,2.96,1.37,9.78-.84,5.54-2.12,13.92-2.45,23.74-.23,6.68,.12,10.16,.37,12.71,.3,3.03,.52,5.21-.42,9.72l-.18,.84c-.65,3-1.46,6.73,.07,10.75,.41,1.07,1.39,3.15,3.4,5.09,4.17,4.03,9.58,4.23,11.35,4.3,2.25,.09,5.65,.21,8.58-1.62,2.65-1.66,3.58-4.08,5.43-9.4,.46-1.32,.96-2.77,1.56-4.36,1.63-4.35,3.74-8.5,5.78-12.52,1.11-2.18,2.25-4.43,3.29-6.66,3.77-8.1,5.76-12.15,7.2-15.11,1.11-2.26,1.84-3.75,2.78-5.86,4.68-10.48,6.47-18.05,9.72-31.8l1.13-4.76c7.12-29.91,10.7-44.92,14.08-54.27,2.34-6.46,3.56-8.96,5.78-13.52,2.48-5.07,6.22-12.73,14.27-31.61,.71-1.66,1.36-3.19,1.96-4.62,3.84-9.07,5.96-14.06,10.15-21.61,6.14-11.06,13.77-24.83,23.9-30.93,2.25-1.35,4.33-2.96,6.53-4.67,1.39-1.08,2.83-2.19,4.32-3.24l.47-.33c1.53-1.07,3.12-2.19,3.45-2.69-.21-.87-3.11-3.05-6.76-3.44h0c-4.12-.44-7.83,1.85-12.13,5.44-15.84,13.18-22.29,26.05-22.36,26.18-10.93,20.82-18,31.65-23.68,40.34-6.81,10.42-11.73,17.95-19.24,36.5-5.4,13.33-11.74,31.4-12.96,34.89-2.42,6.94-4.49,13.11-6.31,18.56-1.84,5.51-3.3,9.87-4.43,12.92-1.46,3.95-2.51,6.8-5.23,6.12-2.42-.61-2.18-3.28-2.03-4.88,.13-1.46,.42-3.55,.79-6.19,1.02-7.4,2.73-19.78,3.36-35.45,0-.09,.3-9.19-2.96-27.46-1.3-7.3-2.6-11.57-5.72-13.24-1.88-1-4.73-1.29-9.06-1.72-2.6-.26-5.05-.5-5.62-.26-2.32,1.21-1.51,10.06-.97,15.92,.11,1.22,.22,2.45,.32,3.66,1.45,17.92,2.41,29.76-2.2,40.21-2.21,5-4.39,6.73-9.17,10.54-3.39,2.7-8.52,6.78-16.4,14.27-5.67,5.39-10.03,9.94-13.53,13.59-7.24,7.55-10.24,10.68-13.47,8.74-2.62-1.57-1.96-4.36-.52-10.46,.88-3.72,2.08-8.82,3.34-16.11,.81-4.68,1.15-7.43,1.43-9.64,.36-2.92,.6-4.84,1.62-8.59,.97-3.57,3.19-8.81,8.11-20.33,1.29-3.01,2.49-6.15,3.64-9.18,1.37-3.57,2.78-7.27,4.37-10.86l.54-1.21c1.28-2.87,3.67-8.22,2.88-9.12-.33-.38-1.89-.99-4.31-1.16-.81-.06-1.25,0-1.72,.06-.69,.09-1.55,.2-2.79-.15-2.38-.69-3.51-2.32-4.42-3.62-.48-.69-.93-1.34-1.58-1.94-2.02-1.87-4.82-2.11-7.52-2.35-.04,0-5.02-.38-9.74,1.78-4.88,2.24-6.49,5.91-8.52,10.57-1.7,3.89-3.62,8.29-7.87,12.04-4.26,3.75-6.19,3.82-9.57,3.06-3.1-.69-8.88-1.98-28.19,5.4-11.54,4.41-19.54,10.4-23.28,13.57-8.46,7.18-13.32,14.57-16.53,19.47-4.48,6.83-8.1,14.05-10.73,21.47-3.37,9.48-5.06,14.23-3.9,20.72,1.13,6.29,3.85,11.16,8.08,14.48,3.24,2.54,7.17,4.05,11.69,4.48,2.97,.28,6.65-.36,9.2-.95,5.02-1.16,11.91-2.74,18.02-7.53,2-1.57,7.18-7.97,16.58-19.59,2.73-3.38,5.77-7.14,8.96-5.73,2.17,.95,2.24,3.2,2.32,5.81,.03,.95,.06,2.02,.17,3.27,0,.05,.41,4.76,1.89,9.46,1.07,3.41,3.1,5.84,7.53,11.15,3.67,4.39,6.71,7.19,12.77,12.76,5.71,5.25,7.03,6.02,8.27,6.53,5.1,2.12,10.07,1.21,11.47,.88,6.22-1.46,9.92-5.97,16.64-14.15,.79-.96,4.02-5.54,9.89-13.85,.05-.07,4.89-6.93,8.97-12.96l.07-.1c1.25-1.85,1.89-2.79,2.27-3.37,1.25-1.91,2.02-3.18,2.53-4.02,.78-1.29,1.59-2.63,3.1-2.63l.02-.03Zm-136.6,11.18c-.7,0-1.29-.26-1.87-.73-1.86-1.53-.87-3.88-.28-5.28,.68-1.61,1.91-4.13,3.95-8.3,.77-1.57,1.65-3.38,2.66-5.45,.91-1.88,1.61-3.32,2.16-4.46,1.73-3.59,2.05-4.23,2.94-5.72,2.43-4.08,5.8-8.46,10.3-13.4,4.82-5.3,9.38-10.3,16.39-15.35,2.24-1.61,22.05-15.59,27.33-9.63,2.57,2.9,.02,7.68-1.67,10.83h0c-4.42,8.28-10.09,12.55-16.09,17.06-1.17,.88-2.37,1.78-3.58,2.73-4.41,3.46-6.15,5.33-9.03,8.44-3.42,3.69-8.09,8.73-19.83,19.44-7.65,6.98-11.08,9.82-13.4,9.82h.02Zm59.53-64.9c-2.91,0-11.95,4.21-20.35,10.26-6.59,4.74-10.97,9.56-15.61,14.65-4.21,4.63-7.48,8.86-9.7,12.6-.78,1.31-1.04,1.84-2.73,5.34-.55,1.14-1.25,2.59-2.17,4.47-1.01,2.08-1.9,3.89-2.67,5.46-.61,1.25-1.17,2.39-1.67,3.42,2.06-1.77,4.22-3.74,5.4-4.82,11.58-10.56,16.18-15.52,19.53-19.14,2.94-3.18,4.89-5.28,9.61-8.98,1.23-.97,2.45-1.89,3.65-2.79,5.78-4.35,10.78-8.11,14.68-15.42l2.21,1.18-2.21-1.18c1.32-2.47,2.04-4.16,2.16-5.05h-.13Z"
              fill="#fff" />
          </g>
          <g>
            <path
              d="M454.5,365.5c5.79-2.55,14.1-.33,16,4,.89,2.04-.05,3.61-3,11-3.84,9.62-5.76,14.43-7,19-2.05,7.57-1.67,10.66-5,14-2.74,2.75-6.08,3.74-7,4-2.23,.64-5.96,1.7-8,0-2.05-1.71-1.33-5.32,0-13,3.02-17.36,2.14-14.92,3-18,3.26-11.64,5.17-18.44,11-21Z"
              fill="#dc3545" />
            <path
              d="M443.54,420.92c-1.65,0-3.29-.37-4.64-1.5-3.09-2.57-2.39-6.57-1-14.54l.14-.81c1.65-9.52,2.14-13.09,2.37-14.81,.21-1.56,.27-1.94,.69-3.44,3.42-12.21,5.49-19.57,12.4-22.61h0c3.85-1.69,8.86-1.72,13.07-.08,3.02,1.18,5.23,3.08,6.22,5.36,1.18,2.7,.37,4.69-1.79,10.01-.35,.86-.74,1.83-1.18,2.92-3.8,9.52-5.71,14.29-6.91,18.72-.57,2.1-.94,3.84-1.27,5.37-.85,3.97-1.47,6.84-4.37,9.74-2.13,2.13-4.93,3.74-8.08,4.64-1.51,.43-3.58,1.02-5.64,1.02h-.01Zm16.45-53.99c-1.61,0-3.17,.29-4.49,.87h0c-4.75,2.09-6.47,8.23-9.6,19.39-.34,1.21-.36,1.36-.55,2.76-.23,1.75-.72,5.38-2.4,15l-.14,.82c-.85,4.89-1.59,9.11-.72,9.84,1.02,.85,4.31-.08,5.71-.48,2.34-.67,4.39-1.83,5.92-3.36,1.86-1.86,2.22-3.55,3.02-7.26,.34-1.59,.73-3.4,1.33-5.62,1.27-4.71,3.22-9.58,7.09-19.28,.44-1.11,.84-2.08,1.19-2.95,1.79-4.41,2.15-5.42,1.84-6.12-.46-1.04-1.72-2.03-3.46-2.71-1.49-.58-3.14-.87-4.76-.87l.02-.03Z"
              fill="#fff" />
          </g>
          <g>
            <path
              d="M567.5,351.5c-2.09-4.22-9.6-6.01-15-4-1.44,.54-5.31,2.3-12,18-4.7,11.02-3.82,12.57-8,22-4.28,9.65-5.52,8.75-10,19-2.27,5.2-4.99,11.43-7,20-2.53,10.81-1.12,13.37-4,16-5.43,4.97-12.67-2.12-23,1-8.74,2.64-13.49,10.76-23,27-7.05,12.04-12,22-12,22-4.21,8.48-5.16,11.33-9,14-4.7,3.26-10.56,9.31-12.97,13.95,.29-.97,.88-16.15,5.97-35.95,2.07-8.07,5.34-18.62,7-24,.21-.69,1.81-7.79,5-22,1.11-4.96,2.3-10.47,0-12-.78-.52-1.59-.33-4,0-7.12,.98-8.19,.46-10,1-5.44,1.63-7.58,9.97-9,15-3.9,13.77-1.18-1.82-12,32-.86,2.68-6.34,19.98-10,40-.57,3.1-1.57,8.91,0,16,.82,3.7,2.07,9.34,7,14,.98,.93,7.48,6.88,16,6,3.78-.39,7.57-3.27,15-9,8.83-6.82,13.28-10.32,15-15,2.06-5.63,.68-10.15,3-11,2.26-.84,4.12,3.28,10,5,4.77,1.4,8.97,.28,10,0,8.21-2.27,10.97-9.88,13-9,1.84,.8-.06,7.25-1,18-.48,5.52-.82,13.48,0,22,.54,5.67,1.32,13.16,5,22,2.21,5.31,4.5,10.63,10,15,2.51,1.99,6.58,5.22,12,5,5.25-.21,9.06-3.55,13-7,4.63-4.05,7.23-5.73,7-8-.4-3.91-8.1-7.56-14-6-4.28,1.13-5.54,4.46-7,4-4.23-1.33,1.57-30.82,2-33,7.49-37.51,11.23-56.27,13-64,5.65-24.67,11.63-49.27,17-74,5.21-24,5.65-28.17,10-36,4.29-7.73,9.27-13.42,7-18Zm-136,169c-1.52,2.95-.12-.01,0,0h0Zm62-40c-6.22,8.35-15.8,18.47-18,17-1.94-1.3,2.5-11.2,6-19,3.08-6.87,4.69-10.37,8-14,5.34-5.84,13.86-10.92,16-9,2.83,2.54-5.97,16.91-12,25Z"
              fill="#dc3545" />
            <path
              d="M518.96,596.01c-6.02,0-10.38-3.46-13.02-5.55-6.12-4.86-8.58-10.77-10.75-16-3.9-9.37-4.67-17.4-5.18-22.72-.85-8.83-.47-17.09,0-22.46,.33-3.76,.77-7.02,1.13-9.63,.17-1.21,.34-2.5,.47-3.62-2.17,2.35-5.35,5.47-10.44,6.88-2.17,.6-6.54,1.4-11.37,0-3.45-1.01-5.66-2.71-7.27-3.95-.3-.23-.66-.51-.97-.73-.09,.53-.16,1.25-.22,1.82-.19,1.89-.45,4.48-1.49,7.31-2,5.45-6.91,9.24-15.82,16.12-7.55,5.83-11.71,9.04-16.27,9.51-9.12,.95-16.06-4.87-17.97-6.67-5.49-5.19-6.89-11.5-7.72-15.28-1.71-7.73-.57-13.98-.02-16.99,3.49-19.1,8.6-35.68,10.08-40.31,6.56-20.5,8.24-23.14,9.46-25.08,.63-.99,1.04-1.64,2.51-6.84l.18-.62c1.58-5.63,3.97-14.13,10.51-16.09,1.12-.34,2.01-.37,3.24-.42,1.33-.05,3.35-.14,7.14-.66l.7-.1c2.13-.3,3.54-.5,5.03,.5,3.77,2.52,2.33,8.95,1.05,14.63-3.73,16.62-4.82,21.44-5.05,22.19-1.72,5.55-4.91,15.88-6.97,23.88-2.75,10.71-4.18,20.09-4.95,26.51,2.66-2.87,5.64-5.47,8.1-7.18,2.73-1.9,3.68-3.84,6.49-9.6,.51-1.04,1.07-2.18,1.7-3.46,.05-.1,5.07-10.17,12.08-22.15,9.83-16.78,14.76-25.2,24.43-28.13,5.57-1.69,10.32-.73,14.13,.05,3.96,.8,6.11,1.14,7.91-.5,.96-.88,1.11-1.54,1.52-4.85,.28-2.27,.67-5.38,1.73-9.88,2.06-8.8,4.88-15.25,7.14-20.43,2.37-5.42,3.88-7.85,5.34-10.21,1.36-2.19,2.64-4.25,4.66-8.8,2.02-4.55,2.83-7.23,3.69-10.07,.88-2.92,1.88-6.23,4.3-11.9,6.45-15.14,10.56-18.3,13.43-19.36,6.19-2.3,15.25-.55,18.11,5.23,2.36,4.77-.66,9.71-4.16,15.44-.95,1.56-1.94,3.17-2.89,4.88-3.54,6.38-4.35,10.17-7.76,26.1-.58,2.71-1.23,5.76-1.98,9.22-3.51,16.17-7.34,32.55-11.05,48.39-2,8.54-4,17.09-5.96,25.64-1.76,7.67-5.49,26.36-12.92,63.6l-.07,.33c-2.52,12.63-3.88,24.54-3.41,29.01,1.17-1.01,2.82-2.26,5.32-2.92,4.83-1.28,10.13,.33,13.24,2.49,2.29,1.59,3.67,3.61,3.88,5.68,.32,3.17-2.03,5.17-5.58,8.19-.69,.58-1.44,1.23-2.26,1.94-4.14,3.62-8.42,7.37-14.55,7.62-.21,0-.43,.01-.64,.01h.01Zm-25.84-87.12c.43,0,.89,.09,1.37,.3,2.95,1.28,2.47,4.77,1.6,11.12-.35,2.56-.79,5.75-1.1,9.39-.45,5.16-.81,13.09,0,21.54,.51,5.32,1.21,12.61,4.82,21.28,2.04,4.89,4.14,9.95,9.25,14,2.33,1.85,5.84,4.64,10.34,4.46,4.37-.18,7.65-3.05,11.45-6.38,.84-.74,1.61-1.39,2.32-1.99,1.74-1.48,3.9-3.32,3.84-3.88-.04-.42-.53-1.22-1.75-2.07-2.17-1.5-5.99-2.59-9.12-1.76-1.79,.47-2.88,1.46-3.85,2.32-1.07,.96-2.53,2.28-4.54,1.64-1.93-.61-6.45-2.03,.3-35.87l.07-.33c7.44-37.28,11.17-55.99,12.95-63.74,1.96-8.56,3.96-17.11,5.96-25.66,3.7-15.82,7.53-32.18,11.03-48.31,.75-3.46,1.4-6.5,1.98-9.2,3.45-16.12,4.38-20.45,8.28-27.48,1-1.81,2.02-3.46,3-5.07,2.84-4.65,5.09-8.31,3.95-10.61h0c-1.46-2.95-7.57-4.37-11.89-2.77-2.67,.99-6.42,6.9-10.57,16.64-2.31,5.42-3.22,8.45-4.11,11.39-.9,2.99-1.76,5.81-3.9,10.65-2.16,4.87-3.6,7.18-4.98,9.42-1.43,2.31-2.79,4.49-5.01,9.57-2.3,5.26-4.9,11.21-6.86,19.57-.99,4.25-1.37,7.2-1.64,9.36-.43,3.45-.72,5.72-3.11,7.91-3.76,3.44-8.09,2.56-12.28,1.71-3.6-.73-7.32-1.48-11.69-.16-7.8,2.36-12.4,10.22-21.56,25.87-6.92,11.83-11.87,21.75-11.92,21.85-.63,1.26-1.18,2.39-1.68,3.42-2.97,6.1-4.33,8.88-8.13,11.52-4.66,3.24-10.12,9.09-12.18,13.05h0l-.02,.04c-.79,1.54-1.7,3.29-3.8,2.51l-2.08-.77,.52-2.16c.02-.07,.24-.96,.78-1.78,.04-.36,.08-.87,.13-1.37,.46-4.95,1.66-18.09,5.8-34.18,2.09-8.12,5.3-18.52,7.03-24.11,.22-.76,2-8.68,4.95-21.81,.49-2.18,1.76-7.84,1.08-9.27-.35,.02-.98,.11-1.58,.2l-.72,.1c-4.03,.56-6.19,.64-7.62,.7-1.11,.04-1.52,.07-2,.21-3.91,1.17-5.93,8.36-7.14,12.66l-.18,.63c-1.6,5.64-2.16,6.67-3.1,8.16-.96,1.51-2.56,4.04-8.92,23.92-1.46,4.56-6.48,20.88-9.92,39.69-.49,2.68-1.51,8.26-.02,15.01,.8,3.62,1.9,8.59,6.28,12.72,1.08,1.02,6.84,6.06,14.03,5.33,3.01-.31,6.58-2.98,13.73-8.49,8.79-6.79,12.74-9.95,14.18-13.88,.82-2.24,1.02-4.28,1.2-6.09,.25-2.53,.54-5.39,3.28-6.4,2.4-.89,4.28,.56,5.94,1.83,1.44,1.11,3.08,2.37,5.63,3.11,3.64,1.07,6.97,.45,8.63,0,4.19-1.16,6.79-4.01,8.69-6.09,1.39-1.53,2.82-3.09,4.61-3.09l-.03-.03Zm-61.8,13.04l-.12,1.04c.66,.07,1.22-.11,1.63-.38l-1.51-.66Zm44.69-21.78c-.7,0-1.32-.2-1.91-.59-3.38-2.26-1.28-7.85,5.1-22.1,2.99-6.66,4.79-10.67,8.44-14.67,4.67-5.11,15.19-13.06,19.52-9.17,5.12,4.6-6.45,21.36-11.67,28.35l-2-1.49,2,1.49c-3.3,4.43-7.32,9.09-10.76,12.47-3.98,3.92-6.66,5.71-8.73,5.71h0Zm27.51-42.52c-2.28,.53-7.86,3.8-12.18,8.53-2.98,3.27-4.47,6.45-7.56,13.34-1.78,3.97-4.76,10.6-5.85,14.36,3.16-2.51,8.71-8.37,13.56-14.88,6.7-8.99,11.58-18.19,12.03-21.35h0Z"
              fill="#fff" />
          </g>
          <g>
            <path
              d="M691.5,391.5l-7,9c-2.63,3.51-4.86,3.97-6,4-5.58,.13-11.1-9.55-11-18,.1-8.64,6.08-15.65,12-19,6.93-3.93,14.42-4.65,21-2,3.18,1.28,8.94,2.05,16,5,13.13,5.49,14,9,14,9,.75,.68,2.11,1.96,4,2,.87,.02,2.46-.21,7-5,1.74-1.83,3.46-3.86,7-8,1.64-1.92,2.47-2.88,3-3,3.73-.84,9.61,7.36,12,15,1,3.19,4.45,14.22-2,23-5.07,6.91-13.19,8.22-18,9-3.47,.56-15.48,1.98-26-5-8.86-5.88-9.69-13.08-18-15-4.34-1-8.31,0-11,1"
              fill="#dc3545" />
            <path
              d="M737.01,415.51c-5.83,0-13.68-1.14-20.89-5.92-4.16-2.76-6.63-5.73-8.82-8.36-2.61-3.13-4.49-5.4-8.36-6.29-2.2-.51-4.56-.46-7.05,.13l-5.42,6.97c-3,4.01-5.96,4.92-7.91,4.96-2.35,.09-4.73-1.03-6.87-3.15-4.01-3.96-6.76-11.11-6.69-17.38,.12-10.12,7.22-17.72,13.27-21.15,7.63-4.33,15.86-5.09,23.17-2.14,1.09,.44,2.68,.85,4.51,1.32,3.14,.81,7.05,1.82,11.51,3.69,10.74,4.49,14.07,7.94,15.09,9.79,.58,.51,1.26,1,2,1.02h0s1.16-.04,5.13-4.22c1.57-1.66,3.12-3.46,6.19-7.06l.72-.84c2.12-2.48,3-3.51,4.35-3.81,5.91-1.33,12.48,8.84,14.93,16.69,3.2,10.24,2.4,18.72-2.37,25.23-5.68,7.74-14.75,9.2-19.62,9.99-1.58,.26-3.99,.54-6.89,.54h.02Zm-41.2-25.93c1.45,0,2.87,.16,4.26,.48,5.52,1.27,8.22,4.52,11.08,7.96,2.06,2.48,4.19,5.04,7.74,7.39,9.33,6.19,20.05,5.29,24.22,4.62,4.75-.77,11.92-1.92,16.38-8.01,3.78-5.15,4.33-12.14,1.63-20.77-2.35-7.51-7.09-12.83-8.81-13.28-.44,.45-1.21,1.34-1.91,2.16l-.72,.84c-3.13,3.66-4.71,5.5-6.37,7.25-4.61,4.86-6.91,5.81-8.87,5.78-2.77-.06-4.65-1.77-5.56-2.59l-.57-.51-.16-.53c-.2-.32-2.22-3.21-12.62-7.56-4.14-1.73-7.85-2.69-10.84-3.46-2.01-.52-3.74-.97-5.13-1.53-5.86-2.36-12.55-1.71-18.83,1.86-4.89,2.77-10.64,8.85-10.73,16.85-.06,4.94,2.13,10.73,5.2,13.77,1.14,1.12,2.25,1.7,3.24,1.71,1.19-.03,2.63-1.09,4.06-3l5.44-7-.32-.85c.45-.17,.89-.32,1.33-.46l.57-.73,.53,.41c1.96-.53,3.88-.79,5.75-.79h0Zm32.27-9.5c.03,.1,.05,.18,.07,.23l-.07-.23Z"
              fill="#fff" />
          </g>
          <g>
            <path
              d="M822.5,476.5c-.39-5.85-1.05-15.58-8-22-7.63-7.05-19.15-6.72-19-8,.17-1.39,13.47,.25,14-2,.46-1.98-8.89-7.43-19-8-13.32-.75-23.4,7.5-24,8-19.19,16.01-22,41-28,62-.58,2.04-6.24,5.38-10,4-2.68-.99-3.75-4.28-5-9-3.29-12.39-4.94-18.58-5-26,0,0-.02-2.73,2-22-.97-2.24-2.76-5.67-6-9-2.38-2.45-4.12-4.24-7-5-6.58-1.74-12.58,3.61-13,4-2.7,2.48-3.63,5.16-4,5-.53-.23,1.88-5.72,4-13,2.48-8.5,3.72-12.76,2-15-2.8-3.66-12.3-2.29-19,1-14.93,7.33-12.29,22.37-26,45-7.69,12.7-18.46,21.8-40,40-25.35,21.42-31.5,20.51-34,19-1.88-1.14-2.95-5.44-5-14-2.98-12.4-4.41-18.64-2-21,3.53-3.45,9.29,2.75,19,1,9.93-1.79,16.17-10.48,23-20,5.81-8.1,9.43-13.15,10-21,.09-1.29,.87-15.36-10-25-13.4-11.87-31.54-5.54-33-5-10.15,3.73-15.49,11.47-20,18-4.59,6.65-7.12,14.52-12,30-4.8,15.22-7.19,22.97-7,30,.12,4.26,.57,15.6,8,27,5.4,8.28,11.93,12.68,14,14,2.87,1.83,10.32,6.45,21,7,8.95,.46,15.59-2.18,20-4,0,0,14.22-5.85,24-19,1.22-1.65,2.15-3.09,2.15-3.09,2.5-3.9,3.69-6.98,3.85-6.91,.42,.16-9.25,19.17-4,24,1.81,1.67,3.64,.02,7,2,5.16,3.04,4.13,8.84,8,10,1.52,.45,2.2-.28,9-3,6.35-2.54,6.66-2.26,8-3,6.01-3.32,5.54-12.05,8-24,2.14-10.36,5.32-17.49,10-28,1.55-3.48,5.73-12.54,13-23,2.16-3.1,9.81-14.11,12-13,1.64,.83-2.08,7.26-2,19,.03,4.85,.67,3.38,2,17,.5,5.06,.7,8.28,2,13,2.06,7.51,4.31,9.45,5,10,2.25,1.8,3.01,.85,9,3,6.77,2.43,7.53,4.26,11,4,3.73-.28,4.36-2.52,7-2,2.82,.55,3.26,3.33,7,8,3.21,4,6.41,6.36,10,9,3.33,2.45,6.48,4.77,10,6,9.22,3.23,18.76-1.77,23-4,12.19-6.4,18.08-16.53,23-25,4.98-8.57,12.09-20.82,11-37Zm-229-39c1.33,.47,1.2,3.86,1,9-.22,5.66-.59,15.39-8,23-3.64,3.74-10.76,8.8-13,7-4.96-3.99,15.25-40.67,20-39Zm201,32c-3.14,11.61-7,18-7,18-4.31,7.12-16.53,25.77-20,24-2.48-1.26,.49-12.44,3-19,3.23-8.45,5.35-8.36,9-17,4.99-11.81,4.01-19.03,8-20,2.57-.63,5.63,1.72,7,4,1.62,2.71,1.14,5.79,0,10Z"
              fill="#dc3545" />
            <path
              d="M645.28,552.13c-.48,0-.96-.08-1.49-.24-2.98-.89-4.11-3.44-5.01-5.5-.81-1.84-1.58-3.59-3.54-4.75-1.2-.71-2.01-.74-3.03-.78-1.2-.05-2.84-.11-4.39-1.53-2.32-2.14-2.77-5.59-2.14-9.74-9.54,10.32-20.69,14.99-21.22,15.21-4.26,1.75-11.38,4.69-21.08,4.18-11.55-.59-19.58-5.71-22.22-7.39-3.28-2.09-9.57-6.79-14.75-14.74-7.97-12.22-8.3-24.32-8.4-28.3-.21-7.59,2.39-15.84,7.11-30.82,4.79-15.2,7.43-23.58,12.33-30.67,4.59-6.65,10.3-14.92,21.19-18.93,2.12-.78,21.15-7.26,35.52,5.48,11.68,10.35,10.96,25.37,10.83,27.05-.62,8.56-4.53,14.01-10.46,22.27-7.03,9.79-13.66,19.04-24.59,21.01-5.46,.98-9.82-.29-13-1.21-2.83-.82-4.04-1.09-4.69-.46-1.45,1.41,.56,9.77,2.68,18.63,1.38,5.75,2.81,11.69,3.87,12.45,1.55,.94,7.7,.99,31.09-18.77,21.3-18,31.99-27.04,39.48-39.39,5.35-8.83,8.12-16.39,10.56-23.05,3.69-10.09,6.61-18.06,16.48-22.9,6.73-3.3,18.03-5.57,22.09-.28,2.49,3.25,1.13,7.91-1.58,17.21-.32,1.1-.65,2.16-.97,3.17,2.85-1.73,7.33-3.57,12.21-2.28,3.55,.94,5.68,3.13,8.15,5.67,2.74,2.81,4.92,6.1,6.5,9.75l.26,.6-.07,.65c-1.94,18.49-1.99,21.62-1.99,21.74,.06,7.08,1.68,13.18,4.91,25.34,.97,3.67,1.9,6.74,3.45,7.31,2.21,.82,6.12-1.34,6.76-2.42,1.08-3.79,2.04-7.64,3.06-11.72,4.63-18.6,9.43-37.83,25.72-51.43,1.15-.96,11.64-9.36,25.74-8.58,8.68,.49,17.99,4.62,20.51,8,.94,1.26,.94,2.37,.78,3.07-.36,1.55-1.56,2.36-3.37,2.78,2.61,1.11,5.28,2.64,7.64,4.82,7.68,7.1,8.38,17.47,8.8,23.67h0c1.14,16.95-6.37,29.87-11.33,38.42-4.98,8.57-11.17,19.23-24,25.96-4.41,2.31-14.74,7.73-24.99,4.15-3.87-1.36-7.16-3.78-10.65-6.34-3.63-2.67-7.06-5.19-10.47-9.45-1.41-1.75-2.37-3.25-3.14-4.45-1.31-2.04-1.69-2.53-2.39-2.66-.42-.08-.55-.04-1.48,.47-1.05,.58-2.5,1.38-4.86,1.57-2.74,.2-4.34-.62-6.38-1.66-1.33-.68-3-1.53-5.65-2.48-2.55-.92-4.09-1.23-5.21-1.46-1.57-.32-2.8-.58-4.5-1.93-2.34-1.87-4.31-5.66-5.85-11.29-1.22-4.43-1.52-7.56-1.93-11.89l-.15-1.53c-.69-7.09-1.19-10-1.52-11.92-.3-1.75-.48-2.81-.5-5.3-.04-5.98,.85-10.6,1.58-13.89-1.53,1.76-3.78,4.62-7.03,9.3-4.99,7.18-9.29,14.78-12.77,22.59-4.67,10.47-7.75,17.39-9.83,27.49-.6,2.92-1.04,5.72-1.42,8.19-1.25,8.05-2.24,14.41-7.82,17.49-.81,.45-1.38,.63-2.24,.91-.97,.32-2.6,.84-6.04,2.22-1.93,.77-3.37,1.38-4.46,1.85-2.17,.93-3.42,1.46-4.69,1.46h0Zm-11.85-41.16c.3,0,.62,.06,.98,.2l.98,.38,.43,.97c.46,1.07,.22,1.66-.8,4.15-5.83,14.21-4.89,18-3.81,18.99,.16,.15,.23,.18,1.2,.22,1.23,.05,3.09,.12,5.38,1.47,3.36,1.98,4.64,4.9,5.58,7.04,.78,1.77,1.16,2.51,1.86,2.72h0c.37,0,1.54-.5,2.79-1.03,1.12-.48,2.59-1.1,4.57-1.89,3.6-1.44,5.32-2,6.35-2.33,.79-.26,.99-.33,1.37-.53,3.28-1.81,4.07-6.01,5.3-13.88,.39-2.53,.84-5.39,1.46-8.43,2.19-10.62,5.54-18.13,10.16-28.51,3.61-8.1,8.06-15.97,13.23-23.41,9.34-13.44,12.44-15.2,15.18-13.8,2.48,1.25,1.87,3.9,1.11,7.25-.71,3.1-1.78,7.77-1.73,13.96,.01,2.09,.13,2.79,.42,4.5,.34,1.99,.85,5,1.56,12.27l.15,1.54c.4,4.23,.67,7.03,1.77,11.04,1.71,6.24,3.47,8.17,4.15,8.71,.76,.61,1.08,.67,2.4,.95,1.2,.25,3,.62,5.89,1.66,2.96,1.06,4.85,2.03,6.23,2.74,1.9,.97,2.46,1.22,3.73,1.12,1.27-.1,1.98-.49,2.81-.95,1.1-.61,2.6-1.45,4.86-1.01,2.87,.56,4.15,2.56,5.64,4.87,.74,1.16,1.59,2.47,2.83,4.02,3,3.75,6.03,5.97,9.53,8.55,3.18,2.34,6.18,4.55,9.34,5.65,8.19,2.87,16.85-1.67,21.01-3.85,11.56-6.06,17.1-15.61,22-24.04,4.94-8.51,11.71-20.16,10.67-35.58h0c-.37-5.45-.98-14.58-7.2-20.33-4.61-4.26-10.94-5.56-14.73-6.33-2.64-.54-5.38-1.1-5.06-3.8,.33-2.79,3.09-2.82,8.11-2.87,1,0,2.43-.02,3.72-.08-2.97-1.73-8.38-3.91-14.48-4.25-12.41-.69-21.86,7.09-22.26,7.42-15.04,12.55-19.63,30.98-24.08,48.8-.99,3.97-2.01,8.07-3.12,11.97-.68,2.38-3.53,4.04-4.72,4.65-3.01,1.53-6.13,1.9-8.54,1.01-4.11-1.51-5.35-6.19-6.55-10.7-3.34-12.58-5.02-18.89-5.08-26.62,0-.29,.03-3.35,1.94-21.62-1.31-2.86-3.07-5.44-5.24-7.66-2.27-2.33-3.64-3.74-5.85-4.33-5.33-1.41-10.62,3.38-10.67,3.42-1.4,1.29-2.25,2.65-2.81,3.55-.52,.84-1.75,2.82-3.88,1.9-2.41-1.05-1.74-2.99-.11-7.68,.79-2.27,1.77-5.09,2.71-8.32,1.88-6.45,3.36-11.54,2.42-12.78-1.53-1.99-9.17-1.59-15.91,1.72-8.06,3.96-10.42,10.39-13.98,20.13-2.39,6.54-5.37,14.67-10.98,23.92-7.91,13.05-18.81,22.26-40.52,40.61-25.25,21.34-32.83,21.7-36.91,19.23-2.81-1.7-3.85-6.04-6.14-15.56-3.19-13.3-4.79-19.98-1.32-23.37,2.8-2.74,6.25-1.73,9.58-.76,3.01,.87,6.42,1.87,10.72,1.09,8.94-1.61,14.72-9.67,21.41-19,5.63-7.84,9.02-12.57,9.54-19.72,.1-1.43,.72-14.19-9.17-22.95-12.41-11-29.75-4.8-30.48-4.52-9.4,3.46-14.4,10.69-18.8,17.07-4.29,6.21-6.68,13.48-11.67,29.33-4.9,15.55-7.06,22.7-6.89,29.18,.1,3.63,.4,14.66,7.59,25.7,4.67,7.16,10.31,11.38,13.25,13.26,2.36,1.51,9.55,6.09,19.78,6.61,8.56,.45,15.05-2.22,18.92-3.82,.13-.05,13.72-5.77,22.95-18.18,1.15-1.55,2.04-2.93,2.05-2.94,1.49-2.33,2.49-4.35,3.09-5.55,.46-.93,1.26-2.54,2.79-2.54v-.02Zm134.46,3.17c-.71,0-1.19-.24-1.52-.41-5.02-2.56-.41-16.32,1.8-22.12,1.77-4.63,3.27-6.92,4.73-9.13,1.29-1.96,2.63-3.99,4.3-7.95,2.05-4.85,3.05-8.86,3.85-12.08,1.17-4.72,2.1-8.45,5.86-9.37,3.77-.92,7.83,1.96,9.74,5.14,2.22,3.71,1.4,7.76,.27,11.94-3.19,11.82-7.11,18.37-7.28,18.64-13.37,22.08-19.14,25.34-21.75,25.34h0Zm20.51-56.25c-.11,0-.21,.01-.3,.03-.82,.2-1.49,2.88-2.2,5.72-.8,3.21-1.9,7.62-4.1,12.82-1.85,4.38-3.38,6.71-4.73,8.76-1.43,2.17-2.66,4.05-4.24,8.16-2.3,6.02-3.69,12.12-3.79,14.99,3.26-2.7,10.14-11.97,16.31-22.18,.04-.06,3.74-6.28,6.72-17.36h0c1.05-3.89,1.38-6.21,.27-8.06-.94-1.57-2.79-2.89-3.96-2.89h.02Zm-213.67,21.49c-1.03,0-1.99-.27-2.79-.93-4.86-3.92,2.24-18.56,6.91-26.94,10.17-18.24,14.17-16.84,15.49-16.37h0c3.07,1.08,2.92,4.76,2.67,11.45-.22,5.72-.63,16.35-8.71,24.65-.09,.1-7.99,8.13-13.56,8.13h0Zm17.38-38.43c-3.07,3.08-9.12,12.29-13.49,22.18-2.9,6.57-3.45,9.94-3.4,11.21,1.78-.42,6.13-3.11,9.49-6.57,6.74-6.92,7.08-15.95,7.29-21.35,.07-1.92,.15-4.01,.11-5.47h0Z"
              fill="#fff" />
          </g>
          <g>
            <path
              d="M939.5,453.5c-1.6-.6-3.59,.89-7,4-8.03,7.32-10.96,11.82-15,16-4.85,5.02-9.57,7.68-19,13-9.97,5.62-10.85,4.4-17,9-4.16,3.11-6.23,5.52-9,5-2.16-.4-4.01-2.44-7-10-4.16-10.53-6.24-15.79-6-23,.14-4.03,1.08-14.06,8-23,3.08-3.97,6.38-6.32,13-11,13.44-9.52,22-6,19-13-2.08-4.84-17.82-12.53-34-9-10.56,2.3-17.83,8.63-24,14-7.51,6.53-12.46,10.84-15,18-5.51,15.5,4.35,32.83,9,41,8.49,14.93,17.41,20.36,15,26-1.58,3.68-5.9,2.58-18,8-7.11,3.18-14.07,6.38-20,13-2.15,2.4-7.16,8.13-9,17-2.83,13.65,3.95,24.66,6,28,5.53,8.99,12.85,13.5,17,16,6.28,3.78,25.46,15.31,46,7,18.39-7.44,24.84-25.51,26-29,1.04-3.14,3.74-11.52,2-22-3.41-20.55-20.18-27.14-17-36,1.83-5.09,7.5-3.27,23-13,3.87-2.43,8.25-5.95,17-13,14.53-11.7,16.86-14.93,18-19,1.62-5.75,.82-12.95-2-14Zm-80,87c-.15,6.83-.22,10.46-2,15-.71,1.82-4.75,11.59-15,16-3.06,1.32-9.66,4.15-14,1-5.19-3.77-3.33-13.3-3-15,.43-2.18,1.72-7.16,10-16,4.08-4.35,16.86-18,22-15,2.27,1.32,2.18,5.55,2,14Z"
              fill="#dc3545" />
            <path
              d="M857.25,604.96c-14.89,0-27.16-7.38-32.04-10.31-3.86-2.32-11.88-7.14-17.84-16.83-6.21-10.08-8.33-20.12-6.32-29.82,2.01-9.71,7.51-15.85,9.59-18.16,6.41-7.15,14.08-10.58,20.84-13.61,5.32-2.38,9.15-3.53,11.95-4.37,3.57-1.07,4.37-1.39,4.77-2.33,.81-1.9-1.12-4.51-4.9-9.34-2.87-3.66-6.43-8.22-9.97-14.44-4.89-8.6-15.07-26.5-9.18-43.07,2.76-7.78,8.19-12.5,15.71-19.04,6.21-5.41,13.93-12.13,25.12-14.56,17.38-3.79,34.29,4.52,36.83,10.46,.58,1.35,1.25,3.37,.39,5.28-1.01,2.24-3.31,3-6.49,4.06-3.42,1.13-8.1,2.69-13.75,6.69-6.6,4.68-9.62,6.81-12.47,10.49-6.14,7.94-7.32,16.91-7.48,21.55-.23,6.69,1.67,11.49,5.83,22,2.18,5.53,3.82,8.21,5.13,8.46,1.01,.19,2.25-.76,4.54-2.59,.75-.6,1.58-1.26,2.5-1.95,3.61-2.7,5.65-3.58,8.24-4.7,2.07-.89,4.64-2,9.03-4.48,9.21-5.2,13.84-7.8,18.43-12.56,1.31-1.36,2.49-2.74,3.86-4.34,2.73-3.2,5.83-6.82,11.25-11.77,3.08-2.81,6.27-5.72,9.56-4.5h0c4.91,1.83,5.21,11.06,3.54,17.02-1.39,4.95-4.31,8.57-18.84,20.27-8.84,7.12-13.25,10.67-17.24,13.17-7.62,4.78-13.01,6.88-16.58,8.27-3.97,1.54-4.87,2.01-5.39,3.46-.98,2.73,1,5.41,4.9,10.29,4.35,5.46,10.31,12.94,12.22,24.45,1.87,11.27-1.11,20.25-2.09,23.2-1.75,5.27-8.89,23.03-27.43,30.53-5.58,2.25-11.04,3.14-16.19,3.14l-.03-.02Zm16.79-191.87c-2.59,0-5.28,.26-8.01,.85-9.93,2.17-16.82,8.16-22.89,13.44-7.47,6.5-11.96,10.41-14.29,16.95-5.12,14.42,4.29,30.97,8.82,38.92,3.36,5.9,6.8,10.3,9.57,13.83,4.4,5.62,7.58,9.68,5.56,14.39-1.36,3.18-3.98,3.97-7.93,5.15-2.67,.8-6.32,1.9-11.34,4.14-6.62,2.96-13.46,6.03-19.16,12.39-1.83,2.04-6.67,7.45-8.41,15.84-2.63,12.68,3.62,22.84,5.68,26.18,5.33,8.66,12.38,12.89,16.16,15.17,6.03,3.63,24.39,14.67,43.77,6.83,16.55-6.7,22.99-22.72,24.56-27.47,.88-2.66,3.57-10.76,1.91-20.8-1.7-10.24-6.97-16.85-11.2-22.16-4.11-5.16-7.66-9.61-5.69-15.1,1.34-3.73,4.25-4.86,8.29-6.43,3.59-1.4,8.52-3.31,15.74-7.84,3.74-2.34,8.07-5.84,16.71-12.79,14.73-11.86,16.33-14.62,17.21-17.77,1.46-5.19,.43-10.07-.43-10.93-1,.27-3.6,2.65-4.48,3.45-5.19,4.74-8.18,8.24-10.82,11.32-1.36,1.59-2.65,3.09-4.06,4.57-5.1,5.28-9.93,8.01-19.56,13.44-4.62,2.61-7.33,3.78-9.51,4.72-2.55,1.1-4.09,1.77-7.23,4.11-.88,.66-1.66,1.28-2.38,1.85-2.83,2.26-5.29,4.22-8.58,3.6-3.43-.64-5.75-3.66-8.87-11.54-4.28-10.83-6.43-16.27-6.17-24,.18-5.25,1.52-15.4,8.52-24.45,3.3-4.27,6.72-6.69,13.53-11.51,6.26-4.43,11.56-6.19,15.06-7.35,1.34-.44,2.98-.99,3.47-1.37-.02-.17-.09-.55-.39-1.25-1.19-2.78-11.05-8.39-23.16-8.39h0Zm-40.7,163.34c-2.18,0-4.38-.5-6.31-1.9-5.64-4.09-4.92-12.72-3.99-17.5,.36-1.84,1.45-7.43,10.63-17.23,12.77-13.64,20.27-18.26,25.08-15.45,3.54,2.07,3.44,6.79,3.24,16.21h0c-.15,7.03-.23,10.9-2.17,15.86-1.14,2.92-5.7,12.81-16.34,17.39-2.13,.92-6.11,2.63-10.15,2.63h.01Zm22.34-47.89c-1.45,0-6.04,1.5-18.36,14.66-8.2,8.75-9.08,13.28-9.37,14.77-1.18,6.05-.43,10.73,2.01,12.5,3.19,2.32,9.04-.2,11.54-1.27,8.86-3.81,12.69-12.15,13.66-14.61,1.62-4.13,1.69-7.48,1.83-14.14,.12-5.51,.24-11.21-.76-11.79-.06-.04-.23-.11-.55-.11h0Z"
              fill="#fff" />
          </g>
        </g>
        <animateTransform attributeName="transform"
          attributeType="XML"
          type="scale"
          from="0.95"
          to="1"
          begin="1"
          dur="4"
          repeatCount="indefinite" />
        <polygon points="2 0 984 0 983 621 0 621 2 0" fill="none" />
      </g>
    </g>
  </g>
</svg>