<?xml version="1.0" encoding="utf-8"?>
<!-- Generator: Adobe Illustrator 27.0.0, SVG Export Plug-In . SVG Version: 6.00 Build 0)  -->
<svg version="1.1" id="Capa_1" xmlns="http://www.w3.org/2000/svg" xmlns:xlink="http://www.w3.org/1999/xlink" x="0px" y="0px"
	 viewBox="0 0 502 546.2" style="enable-background:new 0 0 502 546.2;" xml:space="preserve">
<style type="text/css">
	.st0{fill:#04A7BF;}
	.st1{fill:#DD89E3;}
	.st2{fill:#5969E0;}
	.st3{fill:#5944B5;}
	.st4{fill:#F5C72A;}
</style>
<g>
	<path class="st0" d="M502,266.2c0,60-21.7,115.2-57.9,158.2c-46,54.5-115.6,89.4-193.2,89.4c-73.3,0-139.2-30.9-185.1-80.4
		c-19-20.3-34.6-44-45.8-70C7.1,333.6,0,300.6,0,266c0-26.6,4.2-52.2,12.1-76.3c32.7-99.3,127.3-171.3,239-171.3
		c70.8,0,125.9,19,166.3,50.8c14.2,11.1,26.5,24.2,37.3,38.1C486.4,150.6,502,206,502,266.2L502,266.2z"/>
	<path class="st1" d="M73.3,214.2c-21.3-10.2-42.5-30.5-51.1-53c-17.5-47.5,38.5-99.1,88.1-129C176.1-7.7,242.3-0.3,259.4,2.2
		c23.5,3.3,74.8,10.6,116.1,54c9.2,9.8,43.5,47.9,46.9,106.9c1.7,29.1,0.6,68.6-11,71c-10.4,2.2-16.9-28.7-46.9-61
		c-8.7-9.2-42.5-44.4-98.1-54.9c-11.5-2.2-66.9-8-118,19C82.3,172.1,94.4,224.2,73.3,214.2z"/>
	<path class="st2" d="M135.4,208.1c-2.7,5.1,18.1,13.1,24,35c4.2,15.4-1.3,28-12.9,54.9c-11.5,27.2-22.7,54.7-34,82.1
		c-10,23.9-18.5,45.4-25,74.1c-5.4,23.1-5.6,34-1.9,45c6.3,20.3,25.4,41.3,37.1,37.9c14.8-4.1,3.8-43.2,20-106
		c8.5-32.5,13.7-30.7,41-104c25.6-68.6,26-83.1,19-95C186.5,205,139,200.9,135.4,208.1L135.4,208.1z"/>
	<path class="st3" d="M89.4,219.1c8.7,0.4,4.4-35.6,31-63c30.4-31.7,79.4-29.7,96.1-29.1c21.9,0.8,60,2.5,88.1,32.1
		c29.2,30.9,27.5,71.6,26.9,84.1c-1.5,36.8-18.5,62.2-32.1,82.1c-8.7,12.9-41.3,58.3-102.1,80.9c-24,9-57.9,21.7-81.1,5.9
		c-19-12.9-23.3-39.7-30-37.9c-5.2,1.4-5.4,18.2-5,25c0,0,0.8,14.7,6.9,26c12.3,22.5,73.8,27.2,129,12.9
		c76.7-19.7,131.1-65.9,151.1-89.2c25.6-29.5,46.7-69.2,53.1-122c1.5-13.9,7.5-62.8-23.1-106.9c-23.5-34.2-49.2-48.1-79-60
		c-22.3-9-65.2-21.7-112.1-16c-16.9,2-63.4,7.6-99,45c-7.3,7.4-24.2,26-31,54.9C68.8,180.7,80.4,218.9,89.4,219.1L89.4,219.1z"/>
	<path class="st4" d="M485.5,459.2c12.7,6.8,13.5,45-6,67.1c-15.6,17.6-38.8,19.7-46.9,19.9c-26.5,0.8-43.5-12.3-109-63
		c-27.7-21.1-55.9-41.4-83.1-63c-41-32.5-54.4-45.2-81.1-51c-3.8-0.8-53.8-11.5-71.1,11.9c-13.5,18.4,1.5,45.9-4,47.9
		c-6.3,2.5-36.5-30.7-29-64.1c6-26,31.9-38.7,39-42c12.3-5.9,30-10.6,59-5.9c34.4,5.5,53.4,19,101.1,47.9
		c119,72.5,90.9,54,131.1,74.1c20,10,47.9,23.5,74,19.9C477.8,456.8,477,454.7,485.5,459.2z"/>
</g>
</svg>
