<?xml version="1.0" encoding="UTF-8"?>
<svg id="Capa_2" data-name="Capa 2" xmlns="http://www.w3.org/2000/svg" viewBox="0 0 56 59.16">
  <g id="Capa_1-2" data-name="Capa 1">
    <g>
      <path
        d="M52.16,28.5c0,5.75-2.08,11.05-5.55,15.17-4.41,5.23-11.08,8.57-18.53,8.57-7.03,0-13.35-2.96-17.75-7.71-1.82-1.95-3.32-4.22-4.39-6.71-1.24-2.86-1.92-6.02-1.92-9.34,0-2.55,.4-5.01,1.16-7.32C8.32,11.64,17.39,4.74,28.11,4.74c6.79,0,12.07,1.82,15.95,4.87,1.36,1.06,2.54,2.32,3.58,3.65,3.04,4.15,4.54,9.46,4.54,15.24h0Z"
        fill="#04a7bf" />
      <path
        d="M11.06,23.51c-2.04-.98-4.08-2.92-4.9-5.08-1.68-4.55,3.69-9.5,8.45-12.37,6.31-3.83,12.66-3.12,14.3-2.88,2.25,.32,7.17,1.02,11.13,5.18,.88,.94,4.17,4.59,4.5,10.25,.16,2.79,.06,6.58-1.05,6.81-1,.21-1.62-2.75-4.5-5.85-.83-.88-4.08-4.26-9.41-5.26-1.1-.21-6.42-.77-11.32,1.82-6.34,3.35-5.18,8.34-7.2,7.38Z"
        fill="#dd89e3" />
      <path
        d="M17.01,22.93c-.26,.49,1.74,1.26,2.3,3.36,.4,1.48-.12,2.68-1.24,5.26-1.1,2.61-2.18,5.25-3.26,7.87-.96,2.29-1.77,4.35-2.4,7.11-.52,2.22-.54,3.26-.18,4.32,.6,1.95,2.44,3.96,3.56,3.63,1.42-.39,.36-4.14,1.92-10.16,.82-3.12,1.31-2.94,3.93-9.97,2.45-6.58,2.49-7.97,1.82-9.11-1.55-2.6-6.11-2.99-6.45-2.3h0Z"
        fill="#5969e0" />
      <path
        d="M12.6,23.98c.83,.04,.42-3.41,2.97-6.04,2.92-3.04,7.61-2.85,9.22-2.79,2.1,.08,5.75,.24,8.45,3.08,2.8,2.96,2.64,6.87,2.58,8.06-.14,3.53-1.77,5.96-3.08,7.87-.83,1.24-3.96,5.59-9.79,7.76-2.3,.86-5.55,2.08-7.78,.57-1.82-1.24-2.23-3.81-2.88-3.63-.5,.13-.52,1.75-.48,2.4,0,0,.08,1.41,.66,2.49,1.18,2.16,7.08,2.61,12.37,1.24,7.35-1.89,12.57-6.32,14.49-8.55,2.45-2.83,4.48-6.64,5.09-11.7,.14-1.33,.72-6.02-2.22-10.25-2.25-3.28-4.72-4.61-7.58-5.75-2.14-.86-6.25-2.08-10.75-1.53-1.62,.19-6.08,.73-9.49,4.32-.7,.71-2.32,2.49-2.97,5.26-.8,3.53,.32,7.19,1.18,7.21h0Z"
        fill="#5944b5" />
      <path
        d="M50.58,47.01c1.22,.65,1.29,4.32-.58,6.43-1.5,1.69-3.72,1.89-4.5,1.91-2.54,.08-4.17-1.18-10.45-6.04-2.66-2.02-5.36-3.97-7.97-6.04-3.93-3.12-5.22-4.33-7.78-4.89-.36-.08-5.16-1.1-6.82,1.14-1.29,1.76,.14,4.4-.38,4.59-.6,.24-3.5-2.94-2.78-6.15,.58-2.49,3.06-3.71,3.74-4.03,1.18-.57,2.88-1.02,5.66-.57,3.3,.53,5.12,1.82,9.69,4.59,11.41,6.95,8.72,5.18,12.57,7.11,1.92,.96,4.59,2.25,7.1,1.91,1.75-.2,1.68-.4,2.49,.03Z"
        fill="#f5c72a" />
    </g>
    <animateTransform attributeName="transform"
      attributeType="XML"
      type="scale"
      from="0.5"
      to="1"
      begin="1"
      dur="4"
      repeatCount="indefinite" />

    <rect width="56" height="59.16" fill="none" />

  </g>
  <animateTransform attributeName="transform"
    attributeType="XML"
    type="rotate"
    from="0"
    to="30"
    begin="1"
    dur="4"
    repeatCount="indefinite" />
</svg>