<?xml version="1.0" encoding="utf-8"?>
<!-- Generator: Adobe Illustrator 27.0.0, SVG Export Plug-In . SVG Version: 6.00 Build 0)  -->
<svg version="1.1" id="Capa_1" xmlns="http://www.w3.org/2000/svg" xmlns:xlink="http://www.w3.org/1999/xlink" x="0px" y="0px"
	 viewBox="0 0 502 546.2" style="enable-background:new 0 0 502 546.2;" xml:space="preserve">
<style type="text/css">
	.st0{fill:#04A7BF;}
	.st1{fill:#DD89E3;}
	.st2{fill:#5969E0;}
	.st3{fill:#5944B5;}
	.st4{fill:#F5C72A;}
	.st5{fill:none;}
</style>
<g>
	<path class="st0" d="M239.3,261.2c0,5.8-2.1,11-5.6,15.2c-4.4,5.2-11.1,8.6-18.5,8.6c-7,0-13.3-3-17.7-7.7
		c-1.8-1.9-3.3-4.2-4.4-6.7c-1.2-2.9-1.9-6-1.9-9.3c0-2.6,0.4-5,1.2-7.3c3.1-9.5,12.2-16.4,22.9-16.4c6.8,0,12.1,1.8,15.9,4.9
		c1.4,1.1,2.5,2.3,3.6,3.7C237.9,250.1,239.3,255.4,239.3,261.2L239.3,261.2z"/>
	<path class="st1" d="M198.2,256.2c-2-1-4.1-2.9-4.9-5.1c-1.7-4.6,3.7-9.5,8.4-12.4c6.3-3.8,12.7-3.1,14.3-2.9
		c2.3,0.3,7.2,1,11.1,5.2c0.9,0.9,4.2,4.6,4.5,10.3c0.2,2.8,0.1,6.6-1.1,6.8c-1,0.2-1.6-2.8-4.5-5.8c-0.8-0.9-4.1-4.3-9.4-5.3
		c-1.1-0.2-6.4-0.8-11.3,1.8C199.1,252.2,200.3,257.2,198.2,256.2z"/>
	<path class="st2" d="M204.2,255.6c-0.3,0.5,1.7,1.3,2.3,3.4c0.4,1.5-0.1,2.7-1.2,5.3c-1.1,2.6-2.2,5.2-3.3,7.9
		c-1,2.3-1.8,4.4-2.4,7.1c-0.5,2.2-0.5,3.3-0.2,4.3c0.6,1.9,2.4,4,3.6,3.6c1.4-0.4,0.4-4.1,1.9-10.2c0.8-3.1,1.3-2.9,3.9-10
		c2.5-6.6,2.5-8,1.8-9.1C209.1,255.3,204.5,254.9,204.2,255.6L204.2,255.6z"/>
	<path class="st3" d="M199.8,256.7c0.8,0,0.4-3.4,3-6c2.9-3,7.6-2.8,9.2-2.8c2.1,0.1,5.8,0.2,8.4,3.1c2.8,3,2.6,6.9,2.6,8.1
		c-0.1,3.5-1.8,6-3.1,7.9c-0.8,1.2-4,5.6-9.8,7.8c-2.3,0.9-5.6,2.1-7.8,0.6c-1.8-1.2-2.2-3.8-2.9-3.6c-0.5,0.1-0.5,1.7-0.5,2.4
		c0,0,0.1,1.4,0.7,2.5c1.2,2.2,7.1,2.6,12.4,1.2c7.4-1.9,12.6-6.3,14.5-8.6c2.5-2.8,4.5-6.6,5.1-11.7c0.1-1.3,0.7-6-2.2-10.3
		c-2.3-3.3-4.7-4.6-7.6-5.8c-2.1-0.9-6.3-2.1-10.7-1.5c-1.6,0.2-6.1,0.7-9.5,4.3c-0.7,0.7-2.3,2.5-3,5.3
		C197.8,253,198.9,256.7,199.8,256.7L199.8,256.7z"/>
	<path class="st4" d="M237.8,279.7c1.2,0.7,1.3,4.3-0.6,6.4c-1.5,1.7-3.7,1.9-4.5,1.9c-2.5,0.1-4.2-1.2-10.5-6c-2.7-2-5.4-4-8-6
		c-3.9-3.1-5.2-4.3-7.8-4.9c-0.4-0.1-5.2-1.1-6.8,1.1c-1.3,1.8,0.1,4.4-0.4,4.6c-0.6,0.2-3.5-2.9-2.8-6.1c0.6-2.5,3.1-3.7,3.7-4
		c1.2-0.6,2.9-1,5.7-0.6c3.3,0.5,5.1,1.8,9.7,4.6c11.4,7,8.7,5.2,12.6,7.1c1.9,1,4.6,2.3,7.1,1.9C237,279.5,237,279.3,237.8,279.7z"
		/>
</g>
<animateTransform  accumulate="none" additive="replace" attributeName="transform" attributeType="XML" begin="1" calcMode="linear" dur="4" fill="remove" from="0.95" repeatCount="indefinite" restart="always" to="1" type="scale">
	</animateTransform>
<rect x="187.2" y="232.7" class="st5" width="56" height="59.2"/>
</svg>
